<svg width="583" height="549" viewBox="0 0 583 549" fill="none" xmlns="http://www.w3.org/2000/svg">
<path d="M504.687 161.644C488.947 165.7 484.411 172.937 480.271 183.723C477.459 203.116 484.462 224.077 489.551 248.403L519.687 248.331C552.316 248.409 569.186 241.043 571.085 222.692C571.998 199.926 553.053 188.663 535.691 191.418C536.925 173.582 520.411 159.991 504.687 161.644Z" fill="#FF0000" stroke="#FF0000" stroke-width="2.36731" stroke-linecap="round"/>
<path d="M477.472 183.026L499.203 200.621L489.507 229.685L529.209 200.182L522.007 219.086L555.558 246.252" stroke="white" stroke-width="2.79773"/>
<path d="M238.405 39.1199C222.049 28.5745 222.802 -11.4542 259.388 3.17988C274.668 7.59182 282.415 28.5746 282.415 28.5746C303.829 8.56026 315.02 50.3108 305.873 65.5907L315.02 99.1634L298.341 120.469L259.388 106.588C244.754 95.7202 252.286 82.8076 265.844 85.1748L242.064 75.3827C221.081 59.7802 238.405 45.2535 249.919 50.3108L238.405 39.1199Z" fill="#053E1C"/>
<path d="M248.843 15.3394C269.289 35.9457 280.582 58.6812 300.386 117.134M297.696 30.2964C300.831 33.36 301.747 35.7679 302.43 40.8417M302.43 46.5448C304.698 56.4711 303.054 66.2219 300.386 83.238" stroke="#032504" stroke-width="1.93689"/>
<path d="M310.911 102.295C298.25 91.5521 289.018 50.8795 319.109 69.1425C301.031 19.1057 360.967 12.7569 352.036 70.5413C383.457 70.5413 357.201 105.405 346.226 110.786C372.158 119.716 346.226 136.825 331.484 145.219L298.987 118.103C295.099 116.001 291.827 88.5565 310.911 102.295Z" fill="#118E1E"/>
<path d="M335.465 45.5762C336.328 77.4269 335.462 95.9959 322.768 134.996M362.797 80.2249C362.012 83.8677 361.545 85.8924 359.999 89.0485M357.416 94.2136C353.921 100.093 351.437 102.945 346.225 107.341" stroke="#0C510F" stroke-width="2.79773" stroke-linecap="round"/>
<path d="M14.8265 229.091C33.5498 216.932 39.8985 222.527 53.5642 229.091C64.8628 219.084 66.4769 209.83 83.1556 209.83C103.923 214.134 112.747 223.28 117.266 242.972C122.647 264.6 121.678 280.849 111.671 297.097C105.107 312.807 88.6435 317.327 74.4396 312.807C67.4453 321.308 59.2673 323.676 46.0319 321.308C33.5498 318.403 23.9729 312.807 16.6558 301.079C7.07896 283.431 -9.92281 257.821 14.8265 229.091Z" fill="#FA0101" stroke="black" stroke-width="3.01294"/>
<path d="M55.1785 311.516C22.0351 298.517 10.2087 284.942 8.69316 240.497C7.08486 243.501 6.23858 245.431 4.92698 249.751C3.74322 254.593 2.8824 258.467 3.95854 266.43C4.81929 271.595 5.35731 274.07 7.2942 279.235C10.63 288.489 13.4277 292.685 18.3775 300.971C22.1437 307.535 24.511 309.041 29.0304 312.377C37.15 318.467 41.6631 319.147 49.4152 320.315L49.5829 320.34C60.989 322.6 68.4137 317.973 73.9016 311.516V310.871C78.7438 313.453 82.0796 313.023 87.0294 313.023C92.6248 313.023 96.1758 311.193 100.803 308.396C104.139 306.782 105.86 304.845 107.582 301.832L111.779 293.977C101.214 304.261 94.2443 306.249 80.358 302.155C74.3003 309.906 68.054 311.16 55.1785 311.516Z" fill="#BA1616"/>
<path d="M22.7893 232.319C17.8394 237.053 13.9715 237.83 12.1364 244.586M8.90824 256.1C6.54099 270.519 13.6787 288.345 16.7634 288.919" stroke="black" stroke-width="2.79773"/>
<path d="M109.626 288.812C105.382 297.33 102.231 301.648 93.3781 307.427" stroke="black" stroke-width="2.79773"/>
<path d="M49.5829 211.121C49.4008 220.489 49.9818 224.672 53.3047 228.553C53.3047 228.553 62.2802 213.729 60.1281 212.425C57.9761 211.121 49.5829 211.121 49.5829 211.121Z" fill="black"/>
<ellipse cx="90.3338" cy="230.073" rx="15.6091" ry="9.68207" transform="rotate(29.5641 90.3338 230.073)" fill="#D9D9D9"/>
<path d="M244.326 328.733H270.905H297.483H350.64" stroke="black" stroke-width="3.01294"/>
<mask id="path-14-inside-1_6_265" fill="white">
<path d="M117.513 204.025C91.9245 240.817 78.1996 284.574 78.1843 329.411L219.518 329.459C219.524 313.533 224.399 297.991 233.488 284.922L117.513 204.025Z"/>
</mask>
<path d="M117.513 204.025C91.9245 240.817 78.1996 284.574 78.1843 329.411L219.518 329.459C219.524 313.533 224.399 297.991 233.488 284.922L117.513 204.025Z" fill="#A8DFAE" stroke="black" stroke-width="7.74755" mask="url(#path-14-inside-1_6_265)"/>
<mask id="path-15-inside-2_6_265" fill="white">
<path d="M240.193 117.574C189.001 131.428 144.559 163.399 115.105 207.56L232.624 286.172C243.087 270.483 258.875 259.126 277.061 254.204L240.193 117.574Z"/>
</mask>
<path d="M240.193 117.574C189.001 131.428 144.559 163.399 115.105 207.56L232.624 286.172C243.087 270.483 258.875 259.126 277.061 254.204L240.193 117.574Z" fill="#49D706" stroke="black" stroke-width="7.74755" mask="url(#path-15-inside-2_6_265)"/>
<mask id="path-16-inside-3_6_265" fill="white">
<path d="M368.798 121.953C326.136 107.227 279.976 106.047 236.619 118.573L275.863 254.807C291.215 250.372 307.559 250.79 322.664 256.004L368.798 121.953Z"/>
</mask>
<path d="M368.798 121.953C326.136 107.227 279.976 106.047 236.619 118.573L275.863 254.807C291.215 250.372 307.559 250.79 322.664 256.004L368.798 121.953Z" fill="#F1CB00" stroke="black" stroke-width="7.74755" mask="url(#path-16-inside-3_6_265)"/>
<mask id="path-17-inside-4_6_265" fill="white">
<path d="M478.514 205.881C451.264 165.829 411.546 135.935 365.552 120.861L321.507 255.642C337.786 260.978 351.845 271.559 361.49 285.736L478.514 205.881Z"/>
</mask>
<path d="M478.514 205.881C451.264 165.829 411.546 135.935 365.552 120.861L321.507 255.642C337.786 260.978 351.845 271.559 361.49 285.736L478.514 205.881Z" fill="#DD6767" fill-opacity="0.93" stroke="black" stroke-width="7.74755" mask="url(#path-17-inside-4_6_265)"/>
<mask id="path-18-inside-5_6_265" fill="white">
<path d="M516.566 329.486C516.566 284.171 502.563 239.966 476.477 202.939L360.576 284.83C369.781 297.897 374.723 313.495 374.723 329.486H516.566Z"/>
</mask>
<path d="M516.566 329.486C516.566 284.171 502.563 239.966 476.477 202.939L360.576 284.83C369.781 297.897 374.723 313.495 374.723 329.486H516.566Z" fill="#FF0000" stroke="black" stroke-width="7.74755" mask="url(#path-18-inside-5_6_265)"/>
<path d="M98.3059 266.833L100.19 267.216L102.421 278.939L102.574 278.97L109.204 269.048L111.089 269.431L108.439 282.469L106.962 282.168L108.975 272.263L108.848 272.237L102.76 281.314L101.334 281.025L99.2734 270.291L99.1461 270.265L97.1328 280.171L95.6559 279.87L98.3059 266.833ZM112.139 283.221L110.484 282.884L117.921 270.82L119.55 271.151L121.687 285.162L120.032 284.825L118.367 273.059L118.265 273.038L112.139 283.221ZM113.785 278.252L120.456 279.608L120.172 281.009L113.5 279.653L113.785 278.252ZM133.84 278.298C133.787 277.841 133.68 277.419 133.52 277.033C133.365 276.644 133.155 276.296 132.89 275.991C132.629 275.686 132.315 275.429 131.946 275.222C131.577 275.014 131.157 274.863 130.686 274.767C129.914 274.61 129.171 274.667 128.457 274.937C127.744 275.207 127.121 275.693 126.59 276.394C126.059 277.094 125.678 278.009 125.449 279.138C125.22 280.267 125.215 281.258 125.435 282.112C125.654 282.965 126.046 283.657 126.61 284.187C127.174 284.717 127.859 285.064 128.666 285.228C129.413 285.38 130.103 285.354 130.736 285.151C131.375 284.945 131.913 284.582 132.35 284.061C132.792 283.536 133.095 282.875 133.257 282.078L133.72 282.278L129.799 281.481L130.083 280.08L135.049 281.089L134.764 282.49C134.546 283.564 134.127 284.451 133.507 285.151C132.892 285.852 132.139 286.34 131.248 286.614C130.362 286.885 129.401 286.915 128.366 286.705C127.211 286.47 126.252 285.992 125.488 285.271C124.729 284.551 124.207 283.641 123.922 282.54C123.642 281.44 123.642 280.203 123.921 278.828C124.131 277.796 124.457 276.897 124.9 276.13C125.349 275.359 125.887 274.735 126.514 274.257C127.142 273.779 127.835 273.456 128.594 273.288C129.353 273.119 130.15 273.12 130.986 273.29C131.674 273.43 132.293 273.664 132.845 273.993C133.402 274.318 133.876 274.717 134.266 275.19C134.661 275.659 134.963 276.186 135.171 276.772C135.379 277.354 135.479 277.973 135.469 278.629L133.84 278.298ZM136.428 288.158L139.078 275.12L143.483 276.016C144.501 276.223 145.302 276.567 145.885 277.048C146.469 277.524 146.856 278.096 147.048 278.762C147.239 279.429 147.257 280.146 147.101 280.914C146.945 281.682 146.649 282.331 146.214 282.862C145.78 283.392 145.203 283.761 144.485 283.969C143.767 284.172 142.903 284.171 141.893 283.966L138.329 283.241L138.618 281.815L142.132 282.529C142.828 282.671 143.409 282.683 143.875 282.565C144.345 282.449 144.714 282.223 144.98 281.888C145.252 281.55 145.441 281.12 145.548 280.598C145.654 280.076 145.649 279.6 145.533 279.17C145.417 278.74 145.166 278.375 144.781 278.076C144.396 277.772 143.852 277.549 143.147 277.406L140.372 276.842L138.006 288.479L136.428 288.158ZM143.755 283.548L145.773 290.057L143.939 289.684L141.972 283.186L143.755 283.548ZM147.894 290.488L150.544 277.451L158.412 279.05L158.128 280.451L151.838 279.172L150.943 283.578L156.825 284.773L156.54 286.174L150.658 284.978L149.758 289.409L156.149 290.708L155.864 292.108L147.894 290.488ZM158.175 292.578L158.408 291.432L167.568 282.37L160.464 280.926L160.749 279.525L169.737 281.352L169.504 282.498L160.344 291.561L167.448 293.005L167.164 294.405L158.175 292.578ZM170.347 295.052L168.691 294.716L176.128 282.651L177.758 282.983L179.895 296.993L178.24 296.657L176.575 284.89L176.473 284.869L170.347 295.052ZM171.993 290.084L178.664 291.44L178.38 292.84L171.708 291.484L171.993 290.084Z" fill="black"/>
<path d="M181.958 171.356L172.982 181.176L171.832 180.124L173.528 167.523L173.432 167.435L166.385 175.145L165.196 174.058L174.172 164.239L175.323 165.291L173.628 177.928L173.723 178.016L180.789 170.287L181.958 171.356ZM188.135 186.015C187.188 187.05 186.183 187.774 185.12 188.187C184.056 188.599 183.011 188.712 181.985 188.525C180.959 188.338 180.027 187.862 179.19 187.097C178.353 186.331 177.795 185.446 177.517 184.441C177.239 183.435 177.257 182.385 177.573 181.288C177.888 180.192 178.52 179.126 179.466 178.091C180.413 177.055 181.418 176.331 182.482 175.918C183.545 175.506 184.59 175.393 185.616 175.58C186.642 175.767 187.574 176.243 188.411 177.009C189.249 177.774 189.807 178.659 190.085 179.665C190.363 180.67 190.344 181.721 190.029 182.817C189.713 183.913 189.082 184.979 188.135 186.015ZM186.984 184.963C187.762 184.112 188.275 183.265 188.526 182.42C188.779 181.578 188.802 180.786 188.594 180.044C188.389 179.305 187.989 178.664 187.395 178.121C186.8 177.577 186.124 177.235 185.367 177.095C184.613 176.957 183.826 177.05 183.007 177.375C182.191 177.703 181.394 178.292 180.617 179.142C179.84 179.993 179.324 180.839 179.071 181.681C178.821 182.526 178.798 183.318 179.003 184.057C179.211 184.798 179.612 185.441 180.207 185.984C180.801 186.528 181.476 186.868 182.23 187.006C182.987 187.147 183.774 187.053 184.59 186.726C185.409 186.401 186.207 185.813 186.984 184.963ZM185.647 192.752L194.623 182.932L197.94 185.965C198.708 186.667 199.218 187.373 199.47 188.085C199.726 188.794 199.764 189.484 199.586 190.154C199.408 190.824 199.054 191.448 198.525 192.027C197.996 192.605 197.409 193.01 196.764 193.242C196.118 193.473 195.434 193.493 194.711 193.302C193.991 193.107 193.251 192.662 192.49 191.967L189.805 189.512L190.787 188.438L193.433 190.858C193.958 191.337 194.45 191.646 194.909 191.785C195.373 191.926 195.805 191.922 196.206 191.772C196.613 191.622 196.996 191.351 197.355 190.957C197.715 190.564 197.955 190.153 198.077 189.725C198.199 189.297 198.171 188.855 197.995 188.4C197.821 187.942 197.469 187.47 196.938 186.985L194.847 185.074L186.836 193.839L185.647 192.752ZM194.301 192.566L192.685 199.186L191.304 197.924L192.958 191.339L194.301 192.566ZM203.259 190.827L204.678 192.124L200.565 203.326L200.68 203.431L211.468 198.33L212.887 199.628L203.911 209.447L202.798 208.43L209.618 200.97L209.522 200.882L199.634 205.538L198.56 204.556L202.311 194.29L202.215 194.203L195.395 201.663L194.283 200.647L203.259 190.827ZM206.698 211.995L205.451 210.855L218.033 204.331L219.26 205.453L213.89 218.569L212.643 217.429L217.265 206.481L217.188 206.411L206.698 211.995ZM210.664 208.58L215.689 213.173L214.725 214.228L209.7 209.635L210.664 208.58ZM215.419 219.967L224.395 210.147L225.585 211.234L217.573 219.999L222.137 224.172L221.173 225.226L215.419 219.967Z" fill="black"/>
<path d="M276.304 135.641C276.226 134.983 275.91 134.472 275.356 134.108C274.802 133.744 274.122 133.563 273.316 133.563C272.727 133.563 272.212 133.658 271.77 133.848C271.333 134.039 270.991 134.301 270.744 134.634C270.501 134.968 270.38 135.347 270.38 135.771C270.38 136.126 270.464 136.432 270.633 136.687C270.806 136.938 271.027 137.148 271.296 137.317C271.564 137.482 271.846 137.618 272.14 137.726C272.435 137.83 272.706 137.915 272.952 137.98L274.304 138.344C274.65 138.435 275.035 138.56 275.46 138.72C275.889 138.881 276.298 139.099 276.688 139.376C277.082 139.649 277.406 140 277.662 140.429C277.917 140.858 278.045 141.384 278.045 142.007C278.045 142.726 277.857 143.376 277.48 143.956C277.108 144.536 276.562 144.998 275.843 145.34C275.129 145.682 274.26 145.853 273.238 145.853C272.285 145.853 271.46 145.699 270.763 145.392C270.07 145.084 269.525 144.656 269.126 144.106C268.732 143.556 268.509 142.917 268.457 142.189H270.12C270.163 142.692 270.332 143.107 270.627 143.436C270.926 143.761 271.302 144.004 271.757 144.164C272.216 144.32 272.71 144.398 273.238 144.398C273.853 144.398 274.405 144.298 274.895 144.099C275.384 143.896 275.772 143.614 276.057 143.255C276.343 142.891 276.486 142.466 276.486 141.981C276.486 141.54 276.363 141.18 276.116 140.903C275.869 140.626 275.544 140.401 275.142 140.227C274.739 140.054 274.304 139.903 273.836 139.773L272.199 139.305C271.159 139.006 270.337 138.58 269.73 138.025C269.124 137.471 268.821 136.746 268.821 135.849C268.821 135.104 269.022 134.455 269.425 133.9C269.832 133.342 270.378 132.909 271.062 132.601C271.751 132.289 272.519 132.133 273.368 132.133C274.226 132.133 274.988 132.287 275.655 132.595C276.322 132.898 276.85 133.313 277.24 133.842C277.634 134.37 277.842 134.97 277.863 135.641H276.304ZM291.919 138.967C291.919 140.37 291.666 141.583 291.159 142.605C290.652 143.627 289.957 144.415 289.074 144.97C288.19 145.524 287.181 145.801 286.047 145.801C284.912 145.801 283.903 145.524 283.02 144.97C282.136 144.415 281.441 143.627 280.934 142.605C280.428 141.583 280.174 140.37 280.174 138.967C280.174 137.564 280.428 136.351 280.934 135.329C281.441 134.307 282.136 133.519 283.02 132.965C283.903 132.411 284.912 132.133 286.047 132.133C287.181 132.133 288.19 132.411 289.074 132.965C289.957 133.519 290.652 134.307 291.159 135.329C291.666 136.351 291.919 137.564 291.919 138.967ZM290.36 138.967C290.36 137.815 290.167 136.843 289.782 136.05C289.401 135.258 288.883 134.658 288.229 134.251C287.58 133.844 286.852 133.64 286.047 133.64C285.241 133.64 284.512 133.844 283.858 134.251C283.208 134.658 282.69 135.258 282.305 136.05C281.924 136.843 281.733 137.815 281.733 138.967C281.733 140.119 281.924 141.091 282.305 141.884C282.69 142.676 283.208 143.276 283.858 143.683C284.512 144.09 285.241 144.294 286.047 144.294C286.852 144.294 287.58 144.09 288.229 143.683C288.883 143.276 289.401 142.676 289.782 141.884C290.167 141.091 290.36 140.119 290.36 138.967ZM294.628 145.619V132.315H299.279C300.206 132.315 300.97 132.476 301.572 132.796C302.174 133.112 302.622 133.539 302.917 134.076C303.211 134.608 303.359 135.2 303.359 135.849C303.359 136.421 303.257 136.893 303.053 137.265C302.854 137.638 302.59 137.932 302.261 138.149C301.936 138.365 301.583 138.525 301.202 138.629V138.759C301.609 138.785 302.018 138.928 302.43 139.188C302.841 139.448 303.185 139.82 303.463 140.305C303.74 140.79 303.878 141.384 303.878 142.085C303.878 142.752 303.727 143.352 303.424 143.885C303.12 144.417 302.642 144.84 301.988 145.151C301.334 145.463 300.483 145.619 299.435 145.619H294.628ZM296.239 144.19H299.435C300.487 144.19 301.234 143.986 301.676 143.579C302.122 143.168 302.345 142.67 302.345 142.085C302.345 141.635 302.231 141.219 302.001 140.838C301.771 140.453 301.444 140.145 301.02 139.916C300.596 139.682 300.093 139.565 299.513 139.565H296.239V144.19ZM296.239 138.162H299.227C299.712 138.162 300.15 138.066 300.539 137.876C300.933 137.685 301.245 137.417 301.475 137.07C301.709 136.724 301.826 136.317 301.826 135.849C301.826 135.264 301.622 134.769 301.215 134.362C300.808 133.95 300.163 133.744 299.279 133.744H296.239V138.162ZM306.525 145.619V132.315H311.021C312.06 132.315 312.913 132.493 313.58 132.848C314.247 133.199 314.741 133.682 315.061 134.297C315.382 134.912 315.542 135.611 315.542 136.395C315.542 137.179 315.382 137.874 315.061 138.48C314.741 139.086 314.249 139.563 313.587 139.909C312.924 140.251 312.077 140.422 311.047 140.422H307.409V138.967H310.995C311.705 138.967 312.277 138.863 312.71 138.655C313.147 138.448 313.463 138.153 313.658 137.772C313.857 137.387 313.957 136.927 313.957 136.395C313.957 135.862 313.857 135.397 313.658 134.998C313.459 134.6 313.141 134.292 312.703 134.076C312.266 133.855 311.688 133.744 310.969 133.744H308.136V145.619H306.525ZM312.788 139.643L316.062 145.619H314.191L310.969 139.643H312.788ZM318.226 145.619V132.315H326.256V133.744H319.837V138.24H325.84V139.669H319.837V144.19H326.359V145.619H318.226ZM275.022 167.619V154.315H279.517C280.561 154.315 281.414 154.504 282.077 154.88C282.744 155.253 283.237 155.757 283.558 156.394C283.878 157.031 284.039 157.741 284.039 158.525C284.039 159.309 283.878 160.021 283.558 160.662C283.242 161.303 282.752 161.814 282.09 162.195C281.427 162.572 280.578 162.76 279.543 162.76H276.321V161.331H279.491C280.206 161.331 280.78 161.208 281.213 160.961C281.646 160.714 281.96 160.38 282.155 159.96C282.354 159.536 282.454 159.057 282.454 158.525C282.454 157.992 282.354 157.516 282.155 157.096C281.96 156.675 281.644 156.346 281.206 156.108C280.769 155.866 280.189 155.744 279.465 155.744H276.633V167.619H275.022ZM286.634 167.619V154.315H294.663V155.744H288.245V160.24H294.247V161.669H288.245V166.19H294.767V167.619H286.634ZM304.842 157.641C304.764 156.983 304.448 156.472 303.894 156.108C303.339 155.744 302.66 155.563 301.854 155.563C301.265 155.563 300.75 155.658 300.308 155.848C299.871 156.039 299.528 156.301 299.282 156.634C299.039 156.968 298.918 157.347 298.918 157.771C298.918 158.126 299.002 158.432 299.171 158.687C299.344 158.938 299.565 159.148 299.834 159.317C300.102 159.482 300.384 159.618 300.678 159.726C300.973 159.83 301.243 159.915 301.49 159.98L302.841 160.344C303.188 160.435 303.573 160.56 303.998 160.72C304.426 160.881 304.836 161.099 305.225 161.376C305.62 161.649 305.944 162 306.2 162.429C306.455 162.858 306.583 163.384 306.583 164.007C306.583 164.726 306.395 165.376 306.018 165.956C305.646 166.536 305.1 166.998 304.381 167.34C303.666 167.682 302.798 167.853 301.776 167.853C300.823 167.853 299.998 167.699 299.301 167.392C298.608 167.084 298.062 166.656 297.664 166.106C297.27 165.556 297.047 164.917 296.995 164.189H298.658C298.701 164.692 298.87 165.107 299.165 165.436C299.463 165.761 299.84 166.004 300.295 166.164C300.754 166.32 301.248 166.398 301.776 166.398C302.391 166.398 302.943 166.298 303.433 166.099C303.922 165.896 304.31 165.614 304.595 165.255C304.881 164.891 305.024 164.466 305.024 163.981C305.024 163.54 304.901 163.18 304.654 162.903C304.407 162.626 304.082 162.401 303.679 162.227C303.277 162.054 302.841 161.903 302.374 161.773L300.737 161.305C299.697 161.006 298.874 160.58 298.268 160.025C297.662 159.471 297.359 158.746 297.359 157.849C297.359 157.104 297.56 156.455 297.963 155.9C298.37 155.342 298.916 154.909 299.6 154.601C300.288 154.289 301.057 154.133 301.906 154.133C302.763 154.133 303.526 154.287 304.193 154.595C304.86 154.898 305.388 155.313 305.778 155.842C306.172 156.37 306.38 156.97 306.401 157.641H304.842ZM320.457 160.967C320.457 162.37 320.204 163.583 319.697 164.605C319.19 165.627 318.495 166.415 317.612 166.97C316.728 167.524 315.719 167.801 314.585 167.801C313.45 167.801 312.441 167.524 311.557 166.97C310.674 166.415 309.979 165.627 309.472 164.605C308.966 163.583 308.712 162.37 308.712 160.967C308.712 159.564 308.966 158.351 309.472 157.329C309.979 156.307 310.674 155.519 311.557 154.965C312.441 154.411 313.45 154.133 314.585 154.133C315.719 154.133 316.728 154.411 317.612 154.965C318.495 155.519 319.19 156.307 319.697 157.329C320.204 158.351 320.457 159.564 320.457 160.967ZM318.898 160.967C318.898 159.815 318.705 158.843 318.32 158.05C317.939 157.258 317.421 156.658 316.767 156.251C316.118 155.844 315.39 155.64 314.585 155.64C313.779 155.64 313.049 155.844 312.395 156.251C311.746 156.658 311.228 157.258 310.843 158.05C310.462 158.843 310.271 159.815 310.271 160.967C310.271 162.119 310.462 163.091 310.843 163.884C311.228 164.676 311.746 165.276 312.395 165.683C313.049 166.09 313.779 166.294 314.585 166.294C315.39 166.294 316.118 166.09 316.767 165.683C317.421 165.276 317.939 164.676 318.32 163.884C318.705 163.091 318.898 162.119 318.898 160.967Z" fill="black"/>
<path d="M266.319 295.06V324.798H262.718V295.06H266.319ZM273.539 295.06H277.837L287.944 319.745H288.292L298.398 295.06H302.696V324.798H299.328V302.204H299.037L289.744 324.798H286.491L277.198 302.204H276.908V324.798H273.539V295.06ZM333.847 304.353H330.245C330.033 303.318 329.66 302.408 329.127 301.624C328.605 300.839 327.966 300.181 327.211 299.649C326.465 299.107 325.638 298.7 324.728 298.429C323.818 298.158 322.869 298.022 321.882 298.022C320.081 298.022 318.45 298.477 316.988 299.387C315.536 300.297 314.379 301.638 313.518 303.41C312.666 305.181 312.24 307.354 312.24 309.929C312.24 312.504 312.666 314.678 313.518 316.449C314.379 318.221 315.536 319.561 316.988 320.471C318.45 321.381 320.081 321.836 321.882 321.836C322.869 321.836 323.818 321.701 324.728 321.43C325.638 321.159 326.465 320.757 327.211 320.224C327.966 319.682 328.605 319.019 329.127 318.235C329.66 317.441 330.033 316.531 330.245 315.505H333.847C333.576 317.025 333.082 318.385 332.365 319.585C331.649 320.786 330.759 321.807 329.694 322.649C328.629 323.482 327.433 324.116 326.107 324.551C324.791 324.987 323.382 325.205 321.882 325.205C319.345 325.205 317.09 324.585 315.115 323.346C313.14 322.107 311.587 320.345 310.454 318.061C309.321 315.776 308.755 313.066 308.755 309.929C308.755 306.793 309.321 304.082 310.454 301.798C311.587 299.513 313.14 297.751 315.115 296.512C317.09 295.273 319.345 294.654 321.882 294.654C323.382 294.654 324.791 294.872 326.107 295.307C327.433 295.743 328.629 296.382 329.694 297.224C330.759 298.056 331.649 299.073 332.365 300.273C333.082 301.464 333.576 302.824 333.847 304.353Z" fill="black"/>
<path d="M359.719 247.863C360.752 248.813 361.473 249.821 361.882 250.886C362.291 251.951 362.4 252.996 362.21 254.021C362.02 255.047 361.541 255.977 360.772 256.812C360.004 257.647 359.117 258.202 358.111 258.477C357.105 258.752 356.054 258.73 354.959 258.41C353.864 258.091 352.8 257.457 351.767 256.507C350.735 255.557 350.014 254.549 349.605 253.484C349.196 252.42 349.086 251.374 349.276 250.349C349.467 249.323 349.946 248.393 350.714 247.558C351.482 246.723 352.369 246.168 353.376 245.893C354.382 245.619 355.432 245.641 356.528 245.96C357.623 246.279 358.687 246.913 359.719 247.863ZM358.664 249.011C357.816 248.231 356.97 247.714 356.126 247.461C355.284 247.205 354.493 247.18 353.75 247.386C353.011 247.588 352.369 247.986 351.823 248.579C351.278 249.171 350.933 249.846 350.79 250.603C350.65 251.357 350.741 252.144 351.063 252.964C351.389 253.781 351.975 254.579 352.823 255.359C353.671 256.139 354.515 256.657 355.356 256.914C356.2 257.166 356.992 257.192 357.732 256.989C358.474 256.784 359.118 256.384 359.663 255.792C360.209 255.199 360.551 254.526 360.692 253.772C360.835 253.015 360.744 252.228 360.419 251.411C360.096 250.591 359.511 249.791 358.664 249.011ZM366.449 250.374L356.658 241.366L359.807 237.943C360.435 237.261 361.07 236.807 361.713 236.581C362.354 236.352 362.971 236.311 363.566 236.458C364.157 236.602 364.692 236.894 365.17 237.334C365.591 237.721 365.869 238.115 366.005 238.517C366.145 238.916 366.182 239.31 366.119 239.699C366.058 240.084 365.937 240.452 365.756 240.803L365.851 240.891C366.146 240.609 366.528 240.405 366.998 240.278C367.468 240.151 367.975 240.15 368.52 240.274C369.064 240.399 369.595 240.699 370.111 241.174C370.602 241.625 370.941 242.143 371.127 242.727C371.314 243.31 371.301 243.948 371.088 244.641C370.874 245.333 370.413 246.065 369.703 246.836L366.449 250.374ZM366.488 248.221L368.652 245.869C369.364 245.094 369.72 244.406 369.72 243.806C369.719 243.199 369.503 242.698 369.073 242.302C368.742 241.997 368.358 241.8 367.922 241.711C367.483 241.619 367.035 241.651 366.579 241.808C366.12 241.962 365.693 242.253 365.301 242.68L363.084 245.089L366.488 248.221ZM362.051 244.139L364.074 241.94C364.403 241.583 364.629 241.197 364.753 240.781C364.879 240.362 364.893 239.95 364.793 239.547C364.696 239.14 364.476 238.779 364.132 238.462C363.702 238.066 363.199 237.88 362.624 237.904C362.045 237.925 361.457 238.261 360.859 238.911L358.8 241.148L362.051 244.139ZM374.504 241.618L364.713 232.611L370.15 226.702L371.201 227.669L366.856 232.393L370.164 235.436L374.228 231.019L375.28 231.987L371.216 236.404L374.543 239.465L378.959 234.665L380.011 235.633L374.504 241.618ZM379.489 221.463C378.952 221.074 378.362 220.961 377.719 221.122C377.076 221.284 376.482 221.661 375.936 222.254C375.538 222.688 375.259 223.131 375.1 223.585C374.944 224.036 374.905 224.466 374.983 224.873C375.065 225.277 375.261 225.623 375.574 225.91C375.835 226.151 376.117 226.295 376.419 226.344C376.721 226.387 377.026 226.366 377.332 226.283C377.635 226.197 377.926 226.082 378.205 225.939C378.48 225.792 378.726 225.65 378.941 225.513L380.123 224.765C380.425 224.571 380.778 224.373 381.184 224.169C381.592 223.962 382.03 223.809 382.498 223.709C382.965 223.604 383.443 223.603 383.932 223.705C384.42 223.807 384.894 224.069 385.353 224.492C385.882 224.978 386.233 225.557 386.405 226.227C386.579 226.894 386.549 227.608 386.314 228.369C386.082 229.126 385.62 229.881 384.928 230.633C384.283 231.334 383.612 231.837 382.913 232.142C382.218 232.444 381.533 232.555 380.858 232.476C380.187 232.394 379.566 232.125 378.995 231.671L380.121 230.447C380.52 230.755 380.94 230.912 381.382 230.919C381.823 230.919 382.257 230.806 382.683 230.579C383.108 230.347 383.5 230.037 383.858 229.648C384.274 229.195 384.574 228.721 384.759 228.226C384.941 227.728 384.996 227.253 384.925 226.799C384.851 226.342 384.635 225.95 384.278 225.621C383.953 225.322 383.605 225.17 383.234 225.164C382.863 225.158 382.477 225.244 382.077 225.423C381.677 225.602 381.271 225.82 380.858 226.076L379.406 226.964C378.482 227.527 377.611 227.844 376.793 227.915C375.974 227.985 375.235 227.717 374.576 227.11C374.027 226.606 373.686 226.018 373.55 225.346C373.415 224.669 373.466 223.974 373.703 223.262C373.939 222.544 374.345 221.873 374.92 221.248C375.5 220.617 376.13 220.16 376.807 219.878C377.482 219.592 378.146 219.485 378.798 219.556C379.454 219.623 380.036 219.877 380.545 220.315L379.489 221.463ZM381.105 214.795L390.895 223.802L389.804 224.988L380.014 215.98L381.105 214.795ZM395.862 218.404L393.082 221.425L383.292 212.417L386.194 209.262C387.068 208.312 388.012 207.68 389.026 207.365C390.036 207.047 391.072 207.044 392.133 207.355C393.191 207.664 394.227 208.284 395.24 209.216C396.26 210.155 396.971 211.144 397.373 212.185C397.772 213.223 397.849 214.271 397.605 215.329C397.358 216.384 396.777 217.409 395.862 218.404ZM393.121 219.272L394.74 217.513C395.485 216.703 395.946 215.889 396.123 215.069C396.3 214.249 396.221 213.444 395.884 212.651C395.548 211.859 394.981 211.097 394.185 210.364C393.394 209.637 392.595 209.14 391.787 208.873C390.976 208.603 390.181 208.584 389.403 208.816C388.622 209.045 387.879 209.541 387.176 210.306L385.434 212.199L393.121 219.272ZM401.93 211.808L400.787 213.051L394.304 200.448L395.43 199.224L408.528 204.637L407.384 205.88L396.451 201.223L396.38 201.299L401.93 211.808ZM398.528 207.83L403.137 202.82L404.189 203.788L399.58 208.798L398.528 207.83ZM412.71 200.091L409.931 203.112L400.14 194.104L403.043 190.949C403.917 189.999 404.86 189.367 405.874 189.052C406.885 188.734 407.92 188.731 408.982 189.042C410.04 189.35 411.075 189.971 412.089 190.903C413.109 191.842 413.819 192.831 414.221 193.872C414.62 194.909 414.698 195.957 414.454 197.016C414.206 198.071 413.625 199.096 412.71 200.091ZM409.97 200.959L411.588 199.199C412.333 198.39 412.794 197.575 412.972 196.756C413.149 195.936 413.069 195.13 412.733 194.338C412.396 193.546 411.83 192.784 411.033 192.051C410.243 191.323 409.444 190.827 408.636 190.56C407.824 190.29 407.03 190.271 406.252 190.503C405.471 190.731 404.728 191.228 404.024 191.993L402.283 193.886L409.97 200.959ZM418.833 193.436L409.042 184.428L414.478 178.52L415.53 179.487L411.185 184.21L414.493 187.254L418.557 182.837L419.609 183.804L415.545 188.222L418.872 191.283L423.288 186.483L424.339 187.451L418.833 193.436Z" fill="black"/>
<path d="M400.708 293.344C401.184 294.664 401.357 295.891 401.227 297.024C401.097 298.157 400.71 299.135 400.067 299.956C399.423 300.777 398.568 301.379 397.501 301.764C396.433 302.149 395.39 302.23 394.371 302.008C393.352 301.786 392.431 301.28 391.607 300.49C390.784 299.701 390.135 298.646 389.659 297.326C389.183 296.006 389.011 294.779 389.141 293.646C389.271 292.512 389.658 291.535 390.301 290.714C390.944 289.893 391.8 289.29 392.867 288.906C393.935 288.521 394.978 288.44 395.997 288.662C397.016 288.884 397.937 289.39 398.76 290.179C399.583 290.969 400.233 292.024 400.708 293.344ZM399.242 293.873C398.851 292.789 398.34 291.94 397.709 291.325C397.082 290.708 396.392 290.319 395.638 290.158C394.889 289.995 394.136 290.051 393.378 290.324C392.62 290.597 392.003 291.036 391.525 291.64C391.052 292.243 390.769 292.983 390.675 293.859C390.585 294.734 390.735 295.714 391.126 296.797C391.516 297.881 392.025 298.731 392.653 299.347C393.284 299.962 393.974 300.351 394.723 300.514C395.476 300.675 396.232 300.619 396.99 300.346C397.747 300.073 398.363 299.635 398.836 299.032C399.313 298.427 399.597 297.687 399.687 296.813C399.781 295.936 399.632 294.956 399.242 293.873ZM405.512 298.684L401.002 286.168L405.378 284.591C406.249 284.277 407.023 284.168 407.698 284.266C408.371 284.359 408.938 284.609 409.397 285.014C409.854 285.415 410.193 285.921 410.413 286.533C410.607 287.07 410.672 287.549 410.606 287.968C410.545 288.386 410.397 288.753 410.16 289.068C409.928 289.382 409.65 289.652 409.327 289.879L409.371 290.002C409.763 289.888 410.196 289.884 410.672 289.989C411.147 290.094 411.597 290.327 412.022 290.69C412.447 291.052 412.779 291.563 413.017 292.223C413.243 292.851 413.303 293.466 413.199 294.07C413.094 294.674 412.787 295.234 412.278 295.749C411.768 296.264 411.02 296.699 410.034 297.054L405.512 298.684ZM406.543 296.793L409.55 295.71C410.54 295.353 411.174 294.908 411.451 294.375C411.731 293.837 411.772 293.293 411.574 292.743C411.422 292.319 411.173 291.967 410.828 291.686C410.481 291.402 410.069 291.223 409.592 291.151C409.113 291.075 408.601 291.135 408.055 291.332L404.975 292.442L406.543 296.793ZM404.499 291.122L407.311 290.109C407.767 289.944 408.146 289.706 408.448 289.395C408.754 289.082 408.957 288.724 409.055 288.32C409.158 287.915 409.13 287.492 408.971 287.052C408.773 286.502 408.413 286.105 407.892 285.86C407.37 285.611 406.693 285.636 405.862 285.935L403.002 286.966L404.499 291.122ZM416.705 294.65L412.195 282.134L419.748 279.412L420.233 280.757L414.195 282.933L415.719 287.162L421.366 285.127L421.85 286.471L416.203 288.506L417.736 292.76L423.872 290.549L424.356 291.893L416.705 294.65ZM430.452 279.09C430.156 278.498 429.685 278.124 429.04 277.97C428.396 277.815 427.694 277.875 426.936 278.148C426.382 278.348 425.93 278.612 425.579 278.941C425.232 279.268 424.999 279.631 424.88 280.028C424.765 280.424 424.779 280.822 424.923 281.221C425.043 281.555 425.226 281.814 425.472 281.997C425.72 282.175 425.999 282.297 426.309 282.365C426.617 282.429 426.928 282.462 427.242 282.464C427.554 282.462 427.837 282.449 428.092 282.427L429.486 282.311C429.843 282.279 430.248 282.267 430.702 282.274C431.159 282.279 431.619 282.346 432.079 282.475C432.543 282.598 432.967 282.818 433.353 283.134C433.738 283.451 434.037 283.903 434.248 284.489C434.492 285.166 434.535 285.841 434.377 286.514C434.224 287.187 433.867 287.805 433.306 288.371C432.75 288.935 431.991 289.39 431.03 289.737C430.133 290.06 429.305 290.195 428.545 290.142C427.789 290.088 427.13 289.869 426.569 289.487C426.012 289.103 425.585 288.578 425.29 287.911L426.854 287.347C427.065 287.805 427.365 288.139 427.754 288.349C428.145 288.553 428.582 288.654 429.064 288.65C429.549 288.641 430.039 288.547 430.536 288.368C431.115 288.16 431.601 287.879 431.994 287.525C432.385 287.168 432.654 286.772 432.801 286.337C432.947 285.898 432.937 285.45 432.773 284.993C432.623 284.578 432.385 284.282 432.059 284.105C431.733 283.927 431.351 283.826 430.913 283.799C430.476 283.773 430.015 283.778 429.531 283.814L427.832 283.929C426.753 284 425.834 283.878 425.076 283.562C424.318 283.246 423.787 282.666 423.483 281.823C423.23 281.122 423.199 280.443 423.39 279.785C423.584 279.121 423.95 278.529 424.49 278.008C425.032 277.481 425.702 277.074 426.501 276.786C427.308 276.495 428.077 276.381 428.808 276.444C429.539 276.504 430.177 276.716 430.722 277.08C431.272 277.444 431.671 277.938 431.919 278.562L430.452 279.09ZM434.97 273.927L439.48 286.443L437.965 286.989L433.455 274.473L434.97 273.927ZM446.382 283.956L442.519 285.348L438.009 272.832L442.043 271.379C443.257 270.941 444.386 270.817 445.43 271.007C446.473 271.193 447.393 271.669 448.189 272.436C448.985 273.199 449.616 274.229 450.082 275.524C450.552 276.828 450.724 278.034 450.599 279.143C450.472 280.247 450.056 281.212 449.35 282.037C448.642 282.859 447.653 283.498 446.382 283.956ZM443.55 283.457L445.799 282.647C446.834 282.274 447.62 281.765 448.156 281.121C448.693 280.476 448.995 279.725 449.064 278.868C449.132 278.01 448.983 277.072 448.616 276.053C448.252 275.043 447.773 274.232 447.18 273.622C446.586 273.007 445.89 272.623 445.094 272.468C444.295 272.309 443.407 272.406 442.429 272.758L440.009 273.63L443.55 283.457ZM454.814 280.918L453.225 281.49L453.31 267.318L454.875 266.754L463.981 277.614L462.392 278.187L454.855 268.999L454.757 269.034L454.814 280.918ZM453.639 275.817L460.043 273.509L460.528 274.854L454.123 277.162L453.639 275.817ZM469.793 275.52L465.93 276.912L461.42 264.396L465.454 262.942C466.668 262.505 467.797 262.381 468.841 262.571C469.884 262.757 470.804 263.233 471.6 264C472.396 264.763 473.027 265.793 473.493 267.088C473.963 268.392 474.135 269.598 474.01 270.707C473.883 271.811 473.467 272.776 472.761 273.601C472.053 274.422 471.064 275.062 469.793 275.52ZM466.961 275.021L469.21 274.211C470.245 273.838 471.031 273.329 471.567 272.685C472.104 272.04 472.406 271.289 472.475 270.431C472.543 269.573 472.394 268.635 472.027 267.617C471.663 266.606 471.184 265.796 470.591 265.186C469.997 264.571 469.301 264.186 468.505 264.032C467.706 263.873 466.818 263.97 465.84 264.322L463.42 265.194L466.961 275.021ZM478.3 272.454L473.789 259.938L481.343 257.216L481.828 258.561L475.79 260.737L477.314 264.966L482.96 262.931L483.445 264.275L477.798 266.31L479.331 270.564L485.467 268.353L485.951 269.697L478.3 272.454ZM425.324 305.207C425.042 304.844 424.732 304.539 424.394 304.292C424.059 304.04 423.699 303.852 423.314 303.729C422.933 303.604 422.531 303.548 422.108 303.563C421.685 303.577 421.247 303.666 420.795 303.829C420.054 304.096 419.448 304.53 418.979 305.132C418.51 305.734 418.231 306.472 418.141 307.347C418.051 308.222 418.201 309.201 418.592 310.285C418.983 311.368 419.493 312.218 420.125 312.833C420.756 313.447 421.45 313.835 422.208 313.995C422.965 314.154 423.731 314.095 424.505 313.816C425.222 313.558 425.798 313.177 426.234 312.675C426.672 312.167 426.943 311.577 427.046 310.905C427.152 310.227 427.066 309.505 426.79 308.739L427.29 308.669L423.526 310.026L423.041 308.681L427.808 306.964L428.292 308.308C428.664 309.339 428.767 310.314 428.601 311.235C428.44 312.154 428.05 312.962 427.431 313.659C426.815 314.351 426.01 314.876 425.016 315.234C423.907 315.633 422.84 315.723 421.812 315.504C420.789 315.284 419.87 314.777 419.055 313.984C418.244 313.19 417.601 312.133 417.125 310.813C416.769 309.823 416.58 308.885 416.56 307.999C416.543 307.108 416.678 306.295 416.966 305.561C417.253 304.826 417.678 304.19 418.239 303.652C418.8 303.114 419.482 302.7 420.284 302.411C420.944 302.173 421.595 302.051 422.238 302.045C422.883 302.034 423.495 302.128 424.073 302.33C424.655 302.525 425.187 302.819 425.669 303.212C426.149 303.6 426.556 304.077 426.889 304.643L425.324 305.207ZM432.659 312.286L428.149 299.77L432.378 298.246C433.355 297.894 434.218 297.772 434.966 297.88C435.712 297.984 436.341 298.27 436.851 298.74C437.361 299.21 437.748 299.814 438.014 300.551C438.28 301.289 438.365 301.997 438.269 302.676C438.173 303.355 437.872 303.97 437.366 304.52C436.859 305.067 436.12 305.515 435.15 305.864L431.728 307.098L431.235 305.729L434.608 304.513C435.276 304.272 435.779 303.981 436.116 303.638C436.457 303.294 436.655 302.91 436.709 302.486C436.765 302.055 436.704 301.59 436.523 301.089C436.342 300.588 436.091 300.183 435.768 299.876C435.446 299.569 435.042 299.387 434.557 299.332C434.071 299.272 433.49 299.365 432.813 299.608L430.149 300.568L434.174 311.74L432.659 312.286ZM436.524 304.541L441.63 309.053L439.87 309.688L434.813 305.157L436.524 304.541ZM444.18 308.134L442.591 308.707L442.677 294.535L444.241 293.971L453.347 304.831L451.758 305.404L444.221 296.215L444.124 296.251L444.18 308.134ZM443.005 303.034L449.41 300.726L449.894 302.07L443.49 304.378L443.005 303.034ZM450.123 291.851L457.636 301.048L457.783 300.996L457.702 289.121L459.29 288.548L459.205 302.72L457.64 303.284L448.535 292.424L450.123 291.851ZM465.75 300.362L461.24 287.846L468.794 285.124L469.278 286.468L463.24 288.644L464.764 292.873L470.411 290.838L470.895 292.183L465.249 294.217L466.781 298.471L472.917 296.26L473.402 297.604L465.75 300.362Z" fill="black"/>
<path d="M159 408.5L183 395.5V408.5V420L159 408.5Z" fill="black"/>
<path d="M264.5 329V408.5H159M159 408.5L183 395.5V420L159 408.5Z" stroke="black"/>
<path d="M45.0455 388.909V418H41.5227V388.909H45.0455ZM41.75 385.955L45.2159 379.364H49.1364L44.7045 385.955H41.75ZM55.0064 404.875V418H51.6541V396.182H54.8928V399.591H55.1768C55.6882 398.483 56.4647 397.593 57.5064 396.92C58.5481 396.239 59.8928 395.898 61.5405 395.898C63.0178 395.898 64.3104 396.201 65.4183 396.807C66.5263 397.403 67.388 398.312 68.0036 399.534C68.6191 400.746 68.9268 402.28 68.9268 404.136V418H65.5746V404.364C65.5746 402.65 65.1295 401.314 64.2393 400.358C63.3492 399.392 62.1276 398.909 60.5746 398.909C59.5045 398.909 58.5481 399.141 57.7053 399.605C56.8719 400.069 56.2138 400.746 55.7308 401.636C55.2479 402.527 55.0064 403.606 55.0064 404.875ZM83.2912 418.455C81.473 418.455 79.8679 417.995 78.4759 417.077C77.0838 416.149 75.9948 414.842 75.2088 413.156C74.4228 411.461 74.0298 409.458 74.0298 407.148C74.0298 404.856 74.4228 402.867 75.2088 401.182C75.9948 399.496 77.0885 398.194 78.4901 397.276C79.8916 396.357 81.5109 395.898 83.348 395.898C84.7685 395.898 85.8906 396.134 86.7145 396.608C87.5478 397.072 88.1823 397.602 88.6179 398.199C89.063 398.786 89.4086 399.269 89.6548 399.648H89.9389V388.909H93.2912V418H90.0526V414.648H89.6548C89.4086 415.045 89.0582 415.547 88.6037 416.153C88.1491 416.75 87.5005 417.285 86.6577 417.759C85.8149 418.223 84.6927 418.455 83.2912 418.455ZM83.7457 415.443C85.0904 415.443 86.2268 415.093 87.1548 414.392C88.0829 413.682 88.7884 412.702 89.2713 411.452C89.7543 410.192 89.9957 408.739 89.9957 407.091C89.9957 405.462 89.759 404.037 89.2855 402.815C88.812 401.584 88.1113 400.628 87.1832 399.946C86.2552 399.255 85.1094 398.909 83.7457 398.909C82.3253 398.909 81.1416 399.274 80.1946 400.003C79.2571 400.723 78.5516 401.703 78.0781 402.943C77.6141 404.174 77.3821 405.557 77.3821 407.091C77.3821 408.644 77.6188 410.055 78.0923 411.324C78.5753 412.583 79.2855 413.587 80.223 414.335C81.17 415.074 82.3442 415.443 83.7457 415.443ZM99.8963 418V396.182H103.249V418H99.8963ZM101.601 392.545C100.947 392.545 100.384 392.323 99.9105 391.878C99.4465 391.433 99.2145 390.898 99.2145 390.273C99.2145 389.648 99.4465 389.113 99.9105 388.668C100.384 388.223 100.947 388 101.601 388C102.254 388 102.813 388.223 103.277 388.668C103.75 389.113 103.987 389.648 103.987 390.273C103.987 390.898 103.75 391.433 103.277 391.878C102.813 392.323 102.254 392.545 101.601 392.545ZM118.252 418.455C116.207 418.455 114.445 417.972 112.968 417.006C111.491 416.04 110.354 414.709 109.559 413.014C108.763 411.319 108.366 409.383 108.366 407.205C108.366 404.989 108.773 403.033 109.587 401.338C110.411 399.634 111.557 398.303 113.025 397.347C114.502 396.381 116.226 395.898 118.195 395.898C119.729 395.898 121.112 396.182 122.343 396.75C123.574 397.318 124.583 398.114 125.369 399.136C126.155 400.159 126.642 401.352 126.832 402.716H123.479C123.224 401.722 122.656 400.841 121.775 400.074C120.904 399.297 119.729 398.909 118.252 398.909C116.945 398.909 115.799 399.25 114.815 399.932C113.839 400.604 113.077 401.556 112.528 402.787C111.988 404.009 111.718 405.443 111.718 407.091C111.718 408.777 111.983 410.244 112.513 411.494C113.053 412.744 113.811 413.715 114.786 414.406C115.771 415.098 116.926 415.443 118.252 415.443C119.123 415.443 119.914 415.292 120.624 414.989C121.335 414.686 121.936 414.25 122.428 413.682C122.921 413.114 123.271 412.432 123.479 411.636H126.832C126.642 412.924 126.174 414.084 125.425 415.116C124.687 416.139 123.707 416.954 122.485 417.56C121.273 418.156 119.862 418.455 118.252 418.455ZM140.88 418.455C138.778 418.455 136.964 417.991 135.44 417.062C133.924 416.125 132.755 414.818 131.931 413.142C131.117 411.456 130.71 409.496 130.71 407.261C130.71 405.027 131.117 403.057 131.931 401.352C132.755 399.638 133.901 398.303 135.369 397.347C136.846 396.381 138.569 395.898 140.539 395.898C141.675 395.898 142.798 396.087 143.906 396.466C145.013 396.845 146.022 397.46 146.931 398.312C147.84 399.155 148.565 400.273 149.104 401.665C149.644 403.057 149.914 404.771 149.914 406.807V408.227H133.096V405.33H146.505C146.505 404.098 146.259 403 145.766 402.034C145.283 401.068 144.592 400.306 143.692 399.747C142.802 399.188 141.751 398.909 140.539 398.909C139.204 398.909 138.049 399.241 137.073 399.903C136.107 400.557 135.364 401.409 134.843 402.46C134.322 403.511 134.062 404.638 134.062 405.841V407.773C134.062 409.42 134.346 410.817 134.914 411.963C135.492 413.099 136.292 413.966 137.315 414.562C138.337 415.15 139.526 415.443 140.88 415.443C141.761 415.443 142.556 415.32 143.266 415.074C143.986 414.818 144.606 414.439 145.127 413.938C145.648 413.426 146.05 412.792 146.335 412.034L149.573 412.943C149.232 414.042 148.659 415.008 147.854 415.841C147.049 416.665 146.055 417.309 144.871 417.773C143.688 418.227 142.357 418.455 140.88 418.455Z" fill="black"/>
<path d="M437.932 399H434.409C434.201 397.987 433.836 397.097 433.315 396.33C432.804 395.562 432.179 394.919 431.44 394.398C430.711 393.867 429.902 393.47 429.011 393.205C428.121 392.939 427.193 392.807 426.227 392.807C424.466 392.807 422.87 393.252 421.44 394.142C420.02 395.032 418.888 396.344 418.045 398.077C417.212 399.81 416.795 401.936 416.795 404.455C416.795 406.973 417.212 409.099 418.045 410.832C418.888 412.565 420.02 413.877 421.44 414.767C422.87 415.657 424.466 416.102 426.227 416.102C427.193 416.102 428.121 415.97 429.011 415.705C429.902 415.439 430.711 415.046 431.44 414.526C432.179 413.995 432.804 413.347 433.315 412.58C433.836 411.803 434.201 410.913 434.409 409.909H437.932C437.667 411.396 437.184 412.726 436.483 413.901C435.782 415.075 434.911 416.074 433.869 416.898C432.828 417.712 431.658 418.332 430.361 418.759C429.073 419.185 427.695 419.398 426.227 419.398C423.746 419.398 421.54 418.792 419.608 417.58C417.676 416.367 416.156 414.644 415.048 412.409C413.94 410.174 413.386 407.523 413.386 404.455C413.386 401.386 413.94 398.735 415.048 396.5C416.156 394.265 417.676 392.542 419.608 391.33C421.54 390.117 423.746 389.511 426.227 389.511C427.695 389.511 429.073 389.724 430.361 390.151C431.658 390.577 432.828 391.202 433.869 392.026C434.911 392.84 435.782 393.834 436.483 395.009C437.184 396.173 437.667 397.504 437.932 399ZM452.033 419.455C450.064 419.455 448.335 418.986 446.849 418.048C445.371 417.111 444.216 415.799 443.383 414.114C442.559 412.428 442.147 410.458 442.147 408.205C442.147 405.932 442.559 403.948 443.383 402.253C444.216 400.558 445.371 399.241 446.849 398.304C448.335 397.366 450.064 396.898 452.033 396.898C454.003 396.898 455.727 397.366 457.204 398.304C458.691 399.241 459.846 400.558 460.67 402.253C461.503 403.948 461.92 405.932 461.92 408.205C461.92 410.458 461.503 412.428 460.67 414.114C459.846 415.799 458.691 417.111 457.204 418.048C455.727 418.986 454.003 419.455 452.033 419.455ZM452.033 416.443C453.53 416.443 454.761 416.06 455.727 415.293C456.692 414.526 457.407 413.517 457.871 412.267C458.335 411.017 458.567 409.663 458.567 408.205C458.567 406.746 458.335 405.387 457.871 404.128C457.407 402.868 456.692 401.85 455.727 401.074C454.761 400.297 453.53 399.909 452.033 399.909C450.537 399.909 449.306 400.297 448.34 401.074C447.374 401.85 446.659 402.868 446.195 404.128C445.731 405.387 445.499 406.746 445.499 408.205C445.499 409.663 445.731 411.017 446.195 412.267C446.659 413.517 447.374 414.526 448.34 415.293C449.306 416.06 450.537 416.443 452.033 416.443ZM467.037 419V397.182H470.276V400.477H470.503C470.901 399.398 471.62 398.522 472.662 397.849C473.704 397.177 474.878 396.841 476.185 396.841C476.431 396.841 476.739 396.846 477.108 396.855C477.477 396.865 477.757 396.879 477.946 396.898V400.307C477.832 400.278 477.572 400.236 477.165 400.179C476.767 400.113 476.346 400.08 475.901 400.08C474.84 400.08 473.893 400.302 473.06 400.747C472.236 401.183 471.582 401.789 471.099 402.565C470.626 403.332 470.389 404.208 470.389 405.193V419H467.037ZM481.92 427.182V397.182H485.158V400.648H485.556C485.802 400.269 486.143 399.786 486.579 399.199C487.024 398.602 487.658 398.072 488.482 397.608C489.316 397.134 490.442 396.898 491.863 396.898C493.7 396.898 495.319 397.357 496.721 398.276C498.122 399.194 499.216 400.496 500.002 402.182C500.788 403.867 501.181 405.856 501.181 408.148C501.181 410.458 500.788 412.461 500.002 414.156C499.216 415.842 498.127 417.149 496.735 418.077C495.343 418.995 493.738 419.455 491.92 419.455C490.518 419.455 489.396 419.223 488.553 418.759C487.71 418.285 487.062 417.75 486.607 417.153C486.153 416.547 485.802 416.045 485.556 415.648H485.272V427.182H481.92ZM485.215 408.091C485.215 409.739 485.457 411.192 485.94 412.452C486.423 413.702 487.128 414.682 488.056 415.392C488.984 416.093 490.121 416.443 491.465 416.443C492.867 416.443 494.036 416.074 494.974 415.335C495.921 414.587 496.631 413.583 497.104 412.324C497.587 411.055 497.829 409.644 497.829 408.091C497.829 406.557 497.592 405.174 497.119 403.943C496.655 402.703 495.949 401.723 495.002 401.003C494.065 400.274 492.886 399.909 491.465 399.909C490.102 399.909 488.956 400.255 488.028 400.946C487.1 401.628 486.399 402.584 485.925 403.815C485.452 405.037 485.215 406.462 485.215 408.091ZM515.158 419.455C513.189 419.455 511.46 418.986 509.974 418.048C508.496 417.111 507.341 415.799 506.508 414.114C505.684 412.428 505.272 410.458 505.272 408.205C505.272 405.932 505.684 403.948 506.508 402.253C507.341 400.558 508.496 399.241 509.974 398.304C511.46 397.366 513.189 396.898 515.158 396.898C517.128 396.898 518.852 397.366 520.329 398.304C521.816 399.241 522.971 400.558 523.795 402.253C524.628 403.948 525.045 405.932 525.045 408.205C525.045 410.458 524.628 412.428 523.795 414.114C522.971 415.799 521.816 417.111 520.329 418.048C518.852 418.986 517.128 419.455 515.158 419.455ZM515.158 416.443C516.655 416.443 517.886 416.06 518.852 415.293C519.817 414.526 520.532 413.517 520.996 412.267C521.46 411.017 521.692 409.663 521.692 408.205C521.692 406.746 521.46 405.387 520.996 404.128C520.532 402.868 519.817 401.85 518.852 401.074C517.886 400.297 516.655 399.909 515.158 399.909C513.662 399.909 512.431 400.297 511.465 401.074C510.499 401.85 509.784 402.868 509.32 404.128C508.856 405.387 508.624 406.746 508.624 408.205C508.624 409.663 508.856 411.017 509.32 412.267C509.784 413.517 510.499 414.526 511.465 415.293C512.431 416.06 513.662 416.443 515.158 416.443ZM530.162 419V397.182H533.401V400.477H533.628C534.026 399.398 534.745 398.522 535.787 397.849C536.829 397.177 538.003 396.841 539.31 396.841C539.556 396.841 539.864 396.846 540.233 396.855C540.602 396.865 540.882 396.879 541.071 396.898V400.307C540.957 400.278 540.697 400.236 540.29 400.179C539.892 400.113 539.471 400.08 539.026 400.08C537.965 400.08 537.018 400.302 536.185 400.747C535.361 401.183 534.707 401.789 534.224 402.565C533.751 403.332 533.514 404.208 533.514 405.193V419H530.162ZM551.465 419.511C550.083 419.511 548.828 419.251 547.701 418.73C546.574 418.2 545.679 417.438 545.016 416.443C544.353 415.439 544.022 414.227 544.022 412.807C544.022 411.557 544.268 410.544 544.761 409.767C545.253 408.981 545.911 408.366 546.735 407.92C547.559 407.475 548.468 407.144 549.462 406.926C550.466 406.699 551.475 406.519 552.488 406.386C553.814 406.216 554.888 406.088 555.712 406.003C556.546 405.908 557.152 405.752 557.531 405.534C557.919 405.316 558.113 404.937 558.113 404.398V404.284C558.113 402.883 557.729 401.794 556.962 401.017C556.205 400.241 555.054 399.852 553.511 399.852C551.91 399.852 550.656 400.203 549.746 400.903C548.837 401.604 548.198 402.352 547.829 403.148L544.647 402.011C545.215 400.686 545.973 399.653 546.92 398.915C547.876 398.167 548.918 397.646 550.045 397.352C551.181 397.049 552.299 396.898 553.397 396.898C554.098 396.898 554.903 396.983 555.812 397.153C556.73 397.314 557.616 397.651 558.468 398.162C559.33 398.673 560.045 399.445 560.613 400.477C561.181 401.509 561.465 402.892 561.465 404.625V419H558.113V416.045H557.942C557.715 416.519 557.336 417.026 556.806 417.565C556.276 418.105 555.57 418.564 554.69 418.943C553.809 419.322 552.734 419.511 551.465 419.511ZM551.977 416.5C553.302 416.5 554.42 416.24 555.329 415.719C556.247 415.198 556.939 414.526 557.403 413.702C557.876 412.878 558.113 412.011 558.113 411.102V408.034C557.971 408.205 557.658 408.361 557.175 408.503C556.702 408.635 556.153 408.754 555.528 408.858C554.912 408.953 554.311 409.038 553.724 409.114C553.146 409.18 552.677 409.237 552.317 409.284C551.446 409.398 550.632 409.582 549.874 409.838C549.126 410.084 548.52 410.458 548.056 410.96C547.602 411.453 547.374 412.125 547.374 412.977C547.374 414.142 547.805 415.023 548.667 415.619C549.538 416.206 550.641 416.5 551.977 416.5ZM570.936 389.909V419H567.584V389.909H570.936Z" fill="black"/>
<path d="M234.523 484.909H238.727L248.614 509.057H248.955L258.841 484.909H263.045V514H259.75V491.898H259.466L250.375 514H247.193L238.102 491.898H237.818V514H234.523V484.909ZM276.075 514.511C274.692 514.511 273.437 514.251 272.31 513.73C271.183 513.2 270.289 512.438 269.626 511.443C268.963 510.439 268.631 509.227 268.631 507.807C268.631 506.557 268.878 505.544 269.37 504.767C269.862 503.981 270.521 503.366 271.344 502.92C272.168 502.475 273.077 502.144 274.072 501.926C275.076 501.699 276.084 501.519 277.097 501.386C278.423 501.216 279.498 501.088 280.322 501.003C281.155 500.908 281.761 500.752 282.14 500.534C282.528 500.316 282.722 499.937 282.722 499.398V499.284C282.722 497.883 282.339 496.794 281.572 496.017C280.814 495.241 279.664 494.852 278.12 494.852C276.52 494.852 275.265 495.203 274.356 495.903C273.447 496.604 272.808 497.352 272.438 498.148L269.256 497.011C269.825 495.686 270.582 494.653 271.529 493.915C272.486 493.167 273.527 492.646 274.654 492.352C275.79 492.049 276.908 491.898 278.006 491.898C278.707 491.898 279.512 491.983 280.421 492.153C281.34 492.314 282.225 492.651 283.077 493.162C283.939 493.673 284.654 494.445 285.222 495.477C285.79 496.509 286.075 497.892 286.075 499.625V514H282.722V511.045H282.552C282.325 511.519 281.946 512.026 281.415 512.565C280.885 513.105 280.18 513.564 279.299 513.943C278.418 514.322 277.344 514.511 276.075 514.511ZM276.586 511.5C277.912 511.5 279.029 511.24 279.938 510.719C280.857 510.198 281.548 509.526 282.012 508.702C282.486 507.878 282.722 507.011 282.722 506.102V503.034C282.58 503.205 282.268 503.361 281.785 503.503C281.311 503.635 280.762 503.754 280.137 503.858C279.522 503.953 278.92 504.038 278.333 504.114C277.755 504.18 277.287 504.237 276.927 504.284C276.056 504.398 275.241 504.582 274.484 504.838C273.736 505.084 273.129 505.458 272.665 505.96C272.211 506.453 271.984 507.125 271.984 507.977C271.984 509.142 272.415 510.023 273.276 510.619C274.147 511.206 275.251 511.5 276.586 511.5ZM307.648 497.068L304.636 497.92C304.447 497.419 304.168 496.931 303.798 496.457C303.438 495.974 302.946 495.577 302.321 495.264C301.696 494.952 300.896 494.795 299.92 494.795C298.585 494.795 297.473 495.103 296.582 495.719C295.702 496.325 295.261 497.097 295.261 498.034C295.261 498.867 295.564 499.526 296.17 500.009C296.777 500.491 297.723 500.894 299.011 501.216L302.25 502.011C304.201 502.485 305.654 503.209 306.611 504.185C307.567 505.151 308.045 506.396 308.045 507.92C308.045 509.17 307.686 510.288 306.966 511.273C306.256 512.258 305.261 513.034 303.983 513.602C302.705 514.17 301.218 514.455 299.523 514.455C297.297 514.455 295.455 513.972 293.997 513.006C292.539 512.04 291.616 510.629 291.227 508.773L294.409 507.977C294.712 509.152 295.285 510.032 296.128 510.619C296.98 511.206 298.093 511.5 299.466 511.5C301.028 511.5 302.269 511.169 303.188 510.506C304.116 509.833 304.58 509.028 304.58 508.091C304.58 507.333 304.314 506.699 303.784 506.188C303.254 505.667 302.439 505.278 301.341 505.023L297.705 504.17C295.706 503.697 294.239 502.963 293.301 501.969C292.373 500.965 291.909 499.71 291.909 498.205C291.909 496.973 292.255 495.884 292.946 494.938C293.647 493.991 294.598 493.247 295.801 492.707C297.013 492.168 298.386 491.898 299.92 491.898C302.08 491.898 303.775 492.371 305.006 493.318C306.246 494.265 307.127 495.515 307.648 497.068ZM328.546 497.068L325.535 497.92C325.345 497.419 325.066 496.931 324.697 496.457C324.337 495.974 323.844 495.577 323.219 495.264C322.594 494.952 321.794 494.795 320.819 494.795C319.484 494.795 318.371 495.103 317.481 495.719C316.6 496.325 316.16 497.097 316.16 498.034C316.16 498.867 316.463 499.526 317.069 500.009C317.675 500.491 318.622 500.894 319.91 501.216L323.148 502.011C325.099 502.485 326.553 503.209 327.509 504.185C328.466 505.151 328.944 506.396 328.944 507.92C328.944 509.17 328.584 510.288 327.864 511.273C327.154 512.258 326.16 513.034 324.881 513.602C323.603 514.17 322.116 514.455 320.421 514.455C318.196 514.455 316.354 513.972 314.896 513.006C313.437 512.04 312.514 510.629 312.126 508.773L315.308 507.977C315.611 509.152 316.183 510.032 317.026 510.619C317.879 511.206 318.991 511.5 320.364 511.5C321.927 511.5 323.167 511.169 324.086 510.506C325.014 509.833 325.478 509.028 325.478 508.091C325.478 507.333 325.213 506.699 324.683 506.188C324.152 505.667 323.338 505.278 322.239 505.023L318.603 504.17C316.605 503.697 315.137 502.963 314.2 501.969C313.272 500.965 312.808 499.71 312.808 498.205C312.808 496.973 313.153 495.884 313.844 494.938C314.545 493.991 315.497 493.247 316.7 492.707C317.912 492.168 319.285 491.898 320.819 491.898C322.978 491.898 324.673 492.371 325.904 493.318C327.145 494.265 328.025 495.515 328.546 497.068ZM340.411 514.511C339.028 514.511 337.773 514.251 336.646 513.73C335.519 513.2 334.625 512.438 333.962 511.443C333.299 510.439 332.967 509.227 332.967 507.807C332.967 506.557 333.214 505.544 333.706 504.767C334.198 503.981 334.857 503.366 335.68 502.92C336.504 502.475 337.413 502.144 338.408 501.926C339.411 501.699 340.42 501.519 341.433 501.386C342.759 501.216 343.834 501.088 344.658 501.003C345.491 500.908 346.097 500.752 346.476 500.534C346.864 500.316 347.058 499.937 347.058 499.398V499.284C347.058 497.883 346.675 496.794 345.908 496.017C345.15 495.241 344 494.852 342.456 494.852C340.856 494.852 339.601 495.203 338.692 495.903C337.783 496.604 337.143 497.352 336.774 498.148L333.592 497.011C334.161 495.686 334.918 494.653 335.865 493.915C336.821 493.167 337.863 492.646 338.99 492.352C340.126 492.049 341.244 491.898 342.342 491.898C343.043 491.898 343.848 491.983 344.757 492.153C345.676 492.314 346.561 492.651 347.413 493.162C348.275 493.673 348.99 494.445 349.558 495.477C350.126 496.509 350.411 497.892 350.411 499.625V514H347.058V511.045H346.888C346.661 511.519 346.282 512.026 345.751 512.565C345.221 513.105 344.516 513.564 343.635 513.943C342.754 514.322 341.679 514.511 340.411 514.511ZM340.922 511.5C342.248 511.5 343.365 511.24 344.274 510.719C345.193 510.198 345.884 509.526 346.348 508.702C346.821 507.878 347.058 507.011 347.058 506.102V503.034C346.916 503.205 346.604 503.361 346.121 503.503C345.647 503.635 345.098 503.754 344.473 503.858C343.857 503.953 343.256 504.038 342.669 504.114C342.091 504.18 341.623 504.237 341.263 504.284C340.392 504.398 339.577 504.582 338.82 504.838C338.071 505.084 337.465 505.458 337.001 505.96C336.547 506.453 336.32 507.125 336.32 507.977C336.32 509.142 336.75 510.023 337.612 510.619C338.483 511.206 339.587 511.5 340.922 511.5Z" fill="black"/>
<path d="M291.5 486.5L280 464.5H291.5H302L291.5 486.5Z" fill="black"/>
<path d="M291.5 329V486.5M291.5 486.5L280 464.5H302L291.5 486.5Z" stroke="black"/>
<path d="M388 396.5L408 407L388 415.5V406.884V396.5Z" fill="black"/>
<path d="M321.5 328.5V406.5L408 407M408 407L388 396.5V415.5L408 407Z" stroke="black"/>
</svg>
