<svg width="482" height="478" viewBox="0 0 482 478" fill="none" xmlns="http://www.w3.org/2000/svg">
<path d="M61.5456 116.788C73.2492 54.5919 108.119 45.6497 182.412 40.7832C169.937 84.8365 170.435 109.631 202.433 154.235C245.263 174.752 270.264 176.36 317.368 154.235C352.156 113.543 357.516 88.6346 342.95 40.7832L409.315 51.9059C437.193 56.0443 448.649 68.4766 461.221 109.373C474.906 247.625 471.797 321.66 427.482 441.2C417.818 453.838 413.664 460.898 348.511 474.568H152.752C120.636 470.52 105.643 462.141 88.9816 426.741C65.073 330.84 50.1169 280.034 61.5456 116.788Z" fill="#D9D9D9" stroke="black" stroke-width="6.67362"/>
<path d="M440.947 270.697C429.86 215.327 356.57 184.642 334.87 204.992C315.28 231.852 328.18 247.369 343.3 274.893C357.093 294.476 346.958 325.766 330.539 335.156C313.911 345.173 289.719 361.616 287.386 381.416C274.983 419.524 334.067 454.858 363.292 406.121C371.538 381.843 377.536 372.535 389.232 359.056C436.681 312 440.991 295.884 440.947 270.697Z" fill="black" stroke="black" stroke-width="1.95491"/>
<ellipse cx="450.865" cy="224.678" rx="7.95456" ry="10.8216" transform="rotate(26.1288 450.865 224.678)" fill="black"/>
<ellipse cx="441.491" cy="203.992" rx="9.25973" ry="13.309" transform="rotate(26.1288 441.491 203.992)" fill="black"/>
<ellipse cx="424.346" cy="185.646" rx="11.1184" ry="16.2198" transform="rotate(22.2177 424.346 185.646)" fill="black"/>
<ellipse cx="396.016" cy="167.067" rx="13.7543" ry="19.9147" transform="rotate(18.0286 396.016 167.067)" fill="black"/>
<ellipse cx="356.565" cy="150.705" rx="19.4738" ry="27.8939" transform="rotate(9.58195 356.565 150.705)" fill="black"/>
<path d="M89.0719 256.691C107.679 230.158 122.38 218.157 165.78 208.331C196.771 202.346 216.716 239.333 183.393 281.196C168.42 309.645 170.688 335.11 194.799 353.101C217.893 363.281 228.557 371.574 235.986 399.516C243.03 442.391 188.764 466.376 156.463 422.921C147.289 391.505 136.616 374.679 109.385 345.836C83.0464 319.092 75.5558 285.022 89.0719 256.691Z" fill="black" stroke="black" stroke-width="1.33703"/>
<ellipse cx="171.889" cy="159.137" rx="20.724" ry="30.0953" transform="rotate(-11.45 171.889 159.137)" fill="black"/>
<ellipse cx="130.848" cy="176.285" rx="14.4964" ry="21.6211" transform="rotate(-11.45 130.848 176.285)" fill="black"/>
<ellipse cx="102.189" cy="192.357" rx="12.4376" ry="17.4768" transform="rotate(-14.2846 102.189 192.357)" fill="black"/>
<ellipse cx="83.5068" cy="211.773" rx="8.843" ry="13.8884" transform="rotate(-30.0417 83.5068 211.773)" fill="black"/>
<ellipse cx="73.651" cy="232.435" rx="8.3512" ry="11.2725" transform="rotate(-30.0417 73.651 232.435)" fill="black"/>
<path d="M135.326 223.196H44.12V275.102H204.287C232.688 282.99 241.974 287.879 258.417 296.606C301.258 321.239 319.302 339.685 346.657 376.318L382.25 342.579C362.549 320.273 348.821 306.174 319.221 278.068L258.417 240.621C227.645 226.161 207.994 223.195 135.326 223.196Z" fill="#F0BB1F"/>
<path d="M293.898 289.842C293.06 289.191 292.425 288.467 291.993 287.67C291.569 286.872 291.365 286.072 291.382 285.269C291.406 284.466 291.672 283.724 292.181 283.046L294.63 284.946C294.427 285.239 294.327 285.557 294.329 285.901C294.339 286.245 294.441 286.585 294.635 286.922C294.83 287.259 295.105 287.565 295.46 287.841C295.831 288.129 296.21 288.318 296.596 288.408C296.982 288.498 297.346 288.489 297.687 288.382C298.028 288.275 298.317 288.07 298.552 287.766C298.79 287.459 298.915 287.121 298.926 286.751C298.943 286.381 298.845 286.005 298.632 285.623C298.422 285.244 298.1 284.886 297.665 284.549L296.593 283.716L297.979 281.93L299.052 282.763C299.419 283.048 299.792 283.236 300.172 283.326C300.555 283.42 300.913 283.415 301.244 283.313C301.579 283.207 301.864 283.002 302.099 282.699C302.323 282.41 302.45 282.104 302.48 281.779C302.517 281.453 302.459 281.133 302.308 280.818C302.161 280.505 301.924 280.223 301.598 279.97C301.269 279.714 300.921 279.54 300.555 279.447C300.191 279.351 299.843 279.348 299.51 279.437C299.176 279.526 298.891 279.713 298.653 279.996L296.322 278.187C296.848 277.533 297.49 277.095 298.25 276.875C299.009 276.654 299.81 276.643 300.652 276.841C301.501 277.038 302.319 277.442 303.105 278.052C303.899 278.668 304.481 279.352 304.853 280.102C305.224 280.852 305.385 281.601 305.333 282.347C305.289 283.092 305.029 283.767 304.554 284.371C304.058 285.017 303.441 285.399 302.702 285.516C301.967 285.635 301.233 285.503 300.499 285.119L300.429 285.209C301.191 285.975 301.607 286.769 301.676 287.591C301.753 288.412 301.512 289.179 300.953 289.891C300.448 290.549 299.807 290.985 299.03 291.197C298.256 291.413 297.423 291.408 296.53 291.183C295.637 290.957 294.76 290.511 293.898 289.842Z" fill="black"/>
<path d="M227.112 261.626C226.318 261.009 225.724 260.314 225.329 259.539C224.938 258.768 224.76 257.985 224.795 257.19C224.83 256.395 225.097 255.66 225.597 254.986L227.955 256.817C227.636 257.283 227.542 257.79 227.676 258.337C227.809 258.884 228.115 259.344 228.594 259.716C228.976 260.013 229.378 260.19 229.801 260.248C230.231 260.306 230.645 260.247 231.046 260.071C231.452 259.895 231.81 259.608 232.118 259.212C232.432 258.807 232.622 258.385 232.688 257.944C232.758 257.506 232.71 257.085 232.544 256.68C232.378 256.275 232.104 255.921 231.721 255.618C231.384 255.357 231.003 255.172 230.577 255.063C230.155 254.958 229.763 254.956 229.401 255.059L227.54 252.993L232.793 247.351L239.824 252.809L238.281 254.797L233.255 250.895L230.72 253.545L230.788 253.598C231.211 253.47 231.699 253.471 232.252 253.601C232.806 253.73 233.335 253.991 233.841 254.384C234.533 254.921 235.025 255.564 235.315 256.311C235.605 257.058 235.686 257.838 235.559 258.652C235.434 259.461 235.084 260.233 234.508 260.968C233.91 261.746 233.195 262.295 232.364 262.616C231.54 262.936 230.67 263.017 229.755 262.858C228.846 262.699 227.965 262.288 227.112 261.626Z" fill="black"/>
<path d="M319.089 310.188L320.499 308.371L327.797 307.736C328.429 307.667 328.976 307.587 329.438 307.497C329.903 307.411 330.304 307.283 330.64 307.115C330.979 306.943 331.271 306.699 331.515 306.385C331.786 306.035 331.94 305.672 331.977 305.297C332.017 304.917 331.952 304.552 331.782 304.202C331.614 303.848 331.356 303.536 331.007 303.264C330.642 302.981 330.266 302.808 329.88 302.744C329.493 302.681 329.119 302.73 328.758 302.891C328.396 303.052 328.068 303.323 327.772 303.703L325.379 301.845C325.985 301.064 326.687 300.524 327.487 300.224C328.286 299.923 329.126 299.863 330.007 300.043C330.888 300.223 331.744 300.635 332.575 301.28C333.429 301.943 334.055 302.672 334.453 303.466C334.858 304.259 335.03 305.059 334.97 305.865C334.911 306.672 334.614 307.418 334.081 308.106C333.731 308.556 333.297 308.931 332.777 309.231C332.262 309.534 331.571 309.779 330.705 309.965C329.842 310.148 328.711 310.293 327.313 310.403L324.247 310.757L324.184 310.839L329.192 314.727L327.592 316.789L319.089 310.188Z" fill="black"/>
<path d="M362.716 332.277L352.795 345.057L350.093 342.959L358.023 332.744L357.948 332.686L353.597 332.249L355.458 329.852L360.176 330.305L362.716 332.277Z" fill="black"/>
<path d="M134.214 221.342L133.843 276.214" stroke="black" stroke-width="1.48303"/>
<path d="M41.154 391.89L22.6161 345.545C60.2068 327.179 81.298 316.839 124.574 281.404L192.052 220.6C211.235 220.961 221.982 221.226 240.25 228.015L248.036 235.06L220.6 260.642C195.039 287.001 179.367 300.943 148.673 324.041C111.005 353.31 86.1413 367.317 41.154 391.89Z" fill="#F3D617"/>
<path d="M376.318 214.297H478.647C480.994 236.483 482.102 248.902 476.051 270.281L351.106 268.427C341.248 269.246 334.463 270.156 320.334 272.506C297.421 279.184 284.574 283.395 256.564 296.605L209.107 276.584C224.678 259.9 280.292 216.892 376.318 214.297Z" fill="#F4CF0F"/>
<path d="M66.7362 223.196V275.102" stroke="black" stroke-width="1.48303"/>
<path d="M100.846 222.454V275.102" stroke="black" stroke-width="1.48303"/>
<path d="M49.6814 255.08V275.101M83.4202 255.08V275.101M117.901 255.08V275.101M168.323 223.195V239.509M168.323 243.958L195.018 284.37M200.579 223.195L223.195 255.822M226.903 228.015L238.396 243.958M197.613 253.968L209.477 269.911M169.065 281.775L180.558 298.459M139.404 269.169L165.357 311.435M138.292 306.616L149.415 324.041M109.002 294.381L132.731 336.276M76.7466 316.255L98.992 358.521M106.036 329.232L116.047 347.028M71.9268 350.736L81.5664 369.273M42.2663 336.276L63.7701 378.913M35.9634 370.386L45.2323 389.294M242.104 250.631L257.305 295.864M267.686 268.428L273.618 288.078M278.438 232.093L289.561 281.033M316.997 220.6L323.3 272.506M357.039 215.409L357.78 268.428M391.519 213.556V268.798M425.629 213.556V269.54M339.242 248.778L339.613 269.54M374.464 247.665V268.428M408.574 248.036V269.169M442.683 247.665V269.911M459.367 214.668V269.911M476.051 248.036L475.31 270.281M291.044 291.415L281.404 310.694M319.592 278.809L296.234 321.446M319.592 317.367L310.694 334.052M350.736 309.211L323.67 347.77M348.14 346.657L335.905 362.229" stroke="black" stroke-width="1.48303"/>
<path d="M302.908 259.53L306.245 276.214" stroke="black" stroke-width="1.48303"/>
<path d="M50.6141 234.746V246.61H48.1057V237.127H48.0362L45.3192 238.83V236.606L48.2563 234.746H50.6141ZM58.0857 246.871C57.0893 246.867 56.2319 246.622 55.5136 246.135C54.7991 245.649 54.2487 244.944 53.8625 244.021C53.4802 243.098 53.291 241.987 53.2948 240.69C53.2948 239.396 53.486 238.293 53.8683 237.382C54.2545 236.471 54.8049 235.777 55.5194 235.302C56.2377 234.823 57.0931 234.584 58.0857 234.584C59.0782 234.584 59.9317 234.823 60.6462 235.302C61.3646 235.781 61.9168 236.476 62.303 237.388C62.6892 238.295 62.8804 239.396 62.8766 240.69C62.8766 241.991 62.6835 243.104 62.2973 244.027C61.9149 244.95 61.3665 245.654 60.652 246.141C59.9375 246.628 59.0821 246.871 58.0857 246.871ZM58.0857 244.791C58.7654 244.791 59.308 244.45 59.7135 243.766C60.1191 243.082 60.3199 242.057 60.316 240.69C60.316 239.79 60.2233 239.041 60.038 238.442C59.8564 237.844 59.5977 237.394 59.2617 237.092C58.9295 236.791 58.5375 236.64 58.0857 236.64C57.4098 236.64 56.8691 236.978 56.4636 237.654C56.0581 238.33 55.8534 239.342 55.8496 240.69C55.8496 241.601 55.9403 242.362 56.1218 242.972C56.3072 243.579 56.5679 244.034 56.9039 244.339C57.2399 244.641 57.6338 244.791 58.0857 244.791Z" fill="black"/>
<path d="M465.293 238.826C464.549 238.826 463.885 238.689 463.302 238.415C462.723 238.142 462.263 237.764 461.923 237.283C461.582 236.802 461.405 236.251 461.391 235.629H463.603C463.627 236.047 463.803 236.386 464.129 236.646C464.456 236.906 464.844 237.036 465.293 237.036C465.651 237.036 465.967 236.957 466.241 236.799C466.519 236.637 466.734 236.414 466.889 236.13C467.047 235.842 467.126 235.512 467.126 235.14C467.126 234.76 467.045 234.427 466.884 234.139C466.726 233.851 466.506 233.626 466.225 233.465C465.944 233.303 465.623 233.221 465.262 233.217C464.946 233.217 464.638 233.282 464.34 233.412C464.045 233.542 463.815 233.719 463.65 233.944L461.622 233.581L462.133 227.893H468.727V229.757H464.013L463.734 232.459H463.798C463.987 232.192 464.273 231.971 464.656 231.795C465.039 231.62 465.467 231.532 465.941 231.532C466.59 231.532 467.17 231.685 467.679 231.99C468.188 232.296 468.59 232.715 468.885 233.249C469.18 233.779 469.326 234.39 469.322 235.082C469.326 235.809 469.157 236.455 468.816 237.02C468.479 237.582 468.007 238.024 467.4 238.347C466.796 238.666 466.094 238.826 465.293 238.826ZM474.899 238.826C474.113 238.826 473.412 238.691 472.798 238.421C472.187 238.147 471.704 237.771 471.35 237.294C470.998 236.813 470.818 236.258 470.807 235.629H473.103C473.117 235.893 473.203 236.124 473.361 236.325C473.523 236.521 473.737 236.674 474.004 236.783C474.271 236.892 474.571 236.946 474.904 236.946C475.252 236.946 475.559 236.885 475.826 236.762C476.093 236.639 476.302 236.469 476.453 236.251C476.604 236.033 476.679 235.782 476.679 235.498C476.679 235.21 476.598 234.955 476.437 234.734C476.279 234.509 476.051 234.334 475.752 234.208C475.457 234.081 475.106 234.018 474.699 234.018H473.693V232.343H474.699C475.043 232.343 475.347 232.284 475.61 232.164C475.877 232.045 476.084 231.88 476.232 231.669C476.379 231.455 476.453 231.206 476.453 230.921C476.453 230.651 476.388 230.414 476.258 230.21C476.132 230.003 475.952 229.842 475.721 229.726C475.493 229.61 475.226 229.552 474.92 229.552C474.611 229.552 474.329 229.608 474.072 229.721C473.816 229.829 473.611 229.986 473.456 230.189C473.302 230.393 473.219 230.632 473.209 230.905H471.023C471.034 230.284 471.211 229.736 471.555 229.262C471.899 228.788 472.362 228.418 472.945 228.151C473.532 227.881 474.193 227.746 474.931 227.746C475.675 227.746 476.326 227.881 476.885 228.151C477.443 228.421 477.876 228.787 478.185 229.247C478.498 229.703 478.652 230.216 478.649 230.784C478.652 231.388 478.465 231.892 478.085 232.296C477.71 232.7 477.22 232.956 476.616 233.065V233.149C477.409 233.251 478.013 233.526 478.428 233.976C478.845 234.422 479.053 234.98 479.049 235.651C479.053 236.265 478.875 236.811 478.517 237.288C478.163 237.766 477.673 238.142 477.048 238.415C476.423 238.689 475.707 238.826 474.899 238.826Z" fill="black"/>
<path d="M437.857 238.826C437.113 238.826 436.449 238.689 435.866 238.415C435.287 238.142 434.827 237.764 434.487 237.283C434.146 236.802 433.969 236.251 433.955 235.629H436.167C436.191 236.047 436.367 236.386 436.693 236.646C437.02 236.906 437.408 237.036 437.857 237.036C438.215 237.036 438.531 236.957 438.805 236.799C439.083 236.637 439.298 236.414 439.453 236.13C439.611 235.842 439.69 235.512 439.69 235.14C439.69 234.76 439.609 234.427 439.448 234.139C439.29 233.851 439.07 233.626 438.789 233.465C438.508 233.303 438.187 233.221 437.826 233.217C437.51 233.217 437.202 233.282 436.904 233.412C436.609 233.542 436.379 233.719 436.214 233.944L434.186 233.581L434.697 227.893H441.291V229.757H436.577L436.298 232.459H436.362C436.551 232.192 436.837 231.971 437.22 231.795C437.603 231.62 438.031 231.532 438.505 231.532C439.154 231.532 439.734 231.685 440.243 231.99C440.752 232.296 441.154 232.715 441.449 233.249C441.744 233.779 441.89 234.39 441.886 235.082C441.89 235.809 441.721 236.455 441.38 237.02C441.043 237.582 440.571 238.024 439.964 238.347C439.36 238.666 438.658 238.826 437.857 238.826ZM443.313 236.783V234.987L447.816 227.893H449.364V230.379H448.448L445.609 234.871V234.955H452.008V236.783H443.313ZM448.49 238.679V236.235L448.532 235.44V227.893H450.67V238.679H448.49Z" fill="black"/>
<path d="M404.489 238.826C403.745 238.826 403.081 238.689 402.498 238.415C401.919 238.142 401.459 237.764 401.119 237.283C400.778 236.802 400.601 236.251 400.587 235.629H402.799C402.823 236.047 402.999 236.386 403.325 236.646C403.652 236.906 404.04 237.036 404.489 237.036C404.847 237.036 405.163 236.957 405.437 236.799C405.714 236.637 405.93 236.414 406.085 236.13C406.243 235.842 406.322 235.512 406.322 235.14C406.322 234.76 406.241 234.427 406.08 234.139C405.922 233.851 405.702 233.626 405.421 233.465C405.14 233.303 404.819 233.221 404.457 233.217C404.141 233.217 403.834 233.282 403.536 233.412C403.241 233.542 403.011 233.719 402.846 233.944L400.818 233.581L401.329 227.893H407.923V229.757H403.209L402.93 232.459H402.993C403.183 232.192 403.469 231.971 403.852 231.795C404.235 231.62 404.663 231.532 405.137 231.532C405.786 231.532 406.366 231.685 406.875 231.99C407.384 232.296 407.786 232.715 408.081 233.249C408.376 233.779 408.521 234.39 408.518 235.082C408.521 235.809 408.353 236.455 408.012 237.02C407.675 237.582 407.203 238.024 406.596 238.347C405.992 238.666 405.29 238.826 404.489 238.826ZM414.048 238.826C413.303 238.826 412.64 238.689 412.057 238.415C411.478 238.142 411.018 237.764 410.677 237.283C410.337 236.802 410.159 236.251 410.145 235.629H412.357C412.382 236.047 412.557 236.386 412.884 236.646C413.21 236.906 413.598 237.036 414.048 237.036C414.406 237.036 414.722 236.957 414.996 236.799C415.273 236.637 415.489 236.414 415.643 236.13C415.801 235.842 415.88 235.512 415.88 235.14C415.88 234.76 415.8 234.427 415.638 234.139C415.48 233.851 415.261 233.626 414.98 233.465C414.699 233.303 414.378 233.221 414.016 233.217C413.7 233.217 413.393 233.282 413.094 233.412C412.799 233.542 412.57 233.719 412.404 233.944L410.377 233.581L410.888 227.893H417.481V229.757H412.768L412.489 232.459H412.552C412.742 232.192 413.028 231.971 413.41 231.795C413.793 231.62 414.221 231.532 414.695 231.532C415.345 231.532 415.924 231.685 416.433 231.99C416.942 232.296 417.344 232.715 417.639 233.249C417.934 233.779 418.08 234.39 418.076 235.082C418.08 235.809 417.911 236.455 417.571 237.02C417.234 237.582 416.762 238.024 416.154 238.347C415.55 238.666 414.848 238.826 414.048 238.826Z" fill="black"/>
<path d="M369.879 239.834C369.097 239.834 368.4 239.69 367.788 239.402C367.18 239.115 366.697 238.718 366.34 238.213C365.982 237.708 365.796 237.129 365.781 236.477H368.104C368.129 236.916 368.314 237.271 368.657 237.544C368.999 237.817 369.407 237.953 369.879 237.953C370.255 237.953 370.586 237.87 370.874 237.705C371.165 237.535 371.392 237.301 371.554 237.002C371.72 236.7 371.803 236.353 371.803 235.963C371.803 235.565 371.718 235.214 371.549 234.912C371.383 234.61 371.152 234.374 370.857 234.204C370.562 234.035 370.225 233.948 369.845 233.944C369.514 233.944 369.191 234.013 368.878 234.149C368.568 234.285 368.327 234.472 368.153 234.707L366.024 234.326L366.561 228.354H373.484V230.311H368.535L368.242 233.148H368.308C368.507 232.868 368.808 232.636 369.21 232.451C369.611 232.267 370.061 232.175 370.559 232.175C371.241 232.175 371.849 232.335 372.384 232.656C372.918 232.977 373.34 233.417 373.65 233.978C373.96 234.534 374.113 235.176 374.109 235.902C374.113 236.665 373.936 237.343 373.578 237.937C373.224 238.527 372.728 238.991 372.091 239.33C371.456 239.666 370.719 239.834 369.879 239.834ZM380.125 239.834C379.543 239.83 378.981 239.732 378.439 239.54C377.9 239.349 377.418 239.037 376.99 238.606C376.562 238.175 376.223 237.603 375.972 236.892C375.725 236.18 375.602 235.307 375.602 234.271C375.606 233.319 375.714 232.47 375.928 231.721C376.146 230.969 376.455 230.332 376.857 229.808C377.263 229.285 377.747 228.886 378.311 228.614C378.876 228.337 379.508 228.199 380.208 228.199C380.964 228.199 381.631 228.346 382.21 228.641C382.789 228.933 383.253 229.329 383.603 229.83C383.957 230.332 384.171 230.894 384.245 231.517H381.884C381.792 231.122 381.598 230.813 381.303 230.588C381.008 230.363 380.643 230.25 380.208 230.25C379.471 230.25 378.911 230.571 378.527 231.213C378.147 231.854 377.954 232.726 377.947 233.828H378.024C378.194 233.493 378.422 233.207 378.71 232.971C379.001 232.732 379.331 232.549 379.699 232.424C380.072 232.295 380.464 232.23 380.877 232.23C381.548 232.23 382.145 232.389 382.669 232.706C383.192 233.019 383.605 233.45 383.908 234C384.21 234.549 384.361 235.177 384.361 235.885C384.361 236.652 384.182 237.334 383.825 237.931C383.471 238.529 382.975 238.997 382.337 239.336C381.703 239.671 380.966 239.837 380.125 239.834ZM380.114 237.953C380.483 237.953 380.813 237.865 381.104 237.688C381.395 237.511 381.624 237.271 381.79 236.969C381.956 236.667 382.039 236.328 382.039 235.952C382.039 235.576 381.956 235.238 381.79 234.94C381.627 234.641 381.403 234.403 381.115 234.226C380.828 234.049 380.499 233.961 380.131 233.961C379.854 233.961 379.598 234.013 379.362 234.116C379.13 234.219 378.925 234.363 378.748 234.547C378.575 234.731 378.439 234.945 378.339 235.189C378.24 235.428 378.19 235.684 378.19 235.957C378.19 236.322 378.273 236.656 378.439 236.958C378.608 237.26 378.837 237.502 379.124 237.682C379.416 237.863 379.746 237.953 380.114 237.953Z" fill="black"/>
<path d="M334.487 244.19C333.642 244.327 332.864 244.294 332.151 244.091C331.443 243.887 330.851 243.544 330.376 243.061C329.901 242.577 329.598 241.985 329.467 241.282L331.978 240.873C332.083 241.343 332.344 241.695 332.763 241.93C333.182 242.164 333.646 242.24 334.156 242.157C334.563 242.091 334.907 241.943 335.188 241.713C335.473 241.478 335.677 241.186 335.8 240.834C335.926 240.478 335.955 240.089 335.886 239.667C335.816 239.236 335.663 238.873 335.426 238.576C335.194 238.278 334.903 238.063 334.555 237.932C334.206 237.801 333.826 237.766 333.415 237.829C333.056 237.887 332.72 238.018 332.405 238.22C332.094 238.422 331.866 238.666 331.72 238.952L329.352 238.914L328.881 232.363L336.365 231.146L336.709 233.262L331.359 234.132L331.542 237.25L331.613 237.239C331.779 236.901 332.063 236.597 332.465 236.327C332.867 236.057 333.337 235.878 333.875 235.791C334.612 235.671 335.298 235.737 335.932 235.99C336.567 236.242 337.1 236.644 337.534 237.196C337.966 237.743 338.245 238.41 338.368 239.195C338.507 240.02 338.435 240.784 338.152 241.488C337.874 242.188 337.419 242.778 336.789 243.257C336.163 243.731 335.395 244.042 334.487 244.19ZM341.322 242.906L344.763 232.037L344.75 231.953L338.838 232.915L338.493 230.799L347.083 229.402L347.432 231.548L343.994 242.471L341.322 242.906Z" fill="black"/>
<path d="M297.411 252.346C296.566 252.483 295.788 252.45 295.076 252.247C294.368 252.043 293.776 251.7 293.3 251.217C292.825 250.734 292.522 250.141 292.391 249.438L294.902 249.03C295.007 249.499 295.269 249.851 295.687 250.086C296.106 250.321 296.57 250.396 297.081 250.313C297.487 250.247 297.831 250.099 298.113 249.869C298.398 249.635 298.602 249.342 298.724 248.99C298.851 248.634 298.879 248.245 298.811 247.823C298.741 247.392 298.587 247.029 298.351 246.732C298.118 246.434 297.828 246.22 297.479 246.088C297.13 245.957 296.751 245.922 296.339 245.985C295.981 246.044 295.644 246.174 295.329 246.377C295.019 246.579 294.79 246.822 294.644 247.108L292.276 247.07L291.805 240.52L299.289 239.302L299.634 241.418L294.284 242.288L294.466 245.407L294.538 245.395C294.703 245.057 294.987 244.753 295.389 244.483C295.791 244.213 296.261 244.034 296.799 243.947C297.537 243.827 298.222 243.893 298.857 244.146C299.491 244.399 300.025 244.801 300.458 245.352C300.891 245.899 301.169 246.566 301.293 247.352C301.431 248.176 301.359 248.94 301.077 249.645C300.798 250.345 300.344 250.934 299.714 251.413C299.087 251.887 298.32 252.198 297.411 252.346ZM308.357 250.565C307.436 250.715 306.593 250.698 305.827 250.516C305.064 250.329 304.437 250.008 303.946 249.552C303.454 249.096 303.155 248.538 303.047 247.876C302.964 247.366 303.003 246.879 303.165 246.415C303.33 245.946 303.591 245.538 303.947 245.189C304.303 244.837 304.724 244.58 305.209 244.419L305.195 244.336C304.52 244.311 303.939 244.08 303.451 243.644C302.962 243.204 302.663 242.649 302.554 241.98C302.451 241.346 302.544 240.752 302.835 240.198C303.124 239.639 303.569 239.166 304.168 238.778C304.771 238.385 305.485 238.122 306.31 237.988C307.135 237.853 307.894 237.877 308.586 238.059C309.282 238.24 309.856 238.55 310.308 238.988C310.759 239.422 311.038 239.953 311.144 240.582C311.25 241.256 311.138 241.878 310.809 242.447C310.48 243.016 310.006 243.418 309.386 243.654L309.399 243.738C309.903 243.738 310.377 243.849 310.822 244.071C311.27 244.288 311.647 244.593 311.952 244.985C312.261 245.373 312.459 245.821 312.546 246.33C312.649 246.993 312.54 247.618 312.219 248.206C311.897 248.794 311.403 249.298 310.734 249.718C310.07 250.133 309.277 250.415 308.357 250.565ZM308.047 248.664C308.458 248.597 308.804 248.465 309.087 248.268C309.369 248.066 309.575 247.82 309.703 247.529C309.835 247.234 309.873 246.913 309.817 246.566C309.759 246.211 309.618 245.913 309.395 245.671C309.171 245.425 308.893 245.25 308.561 245.144C308.228 245.035 307.862 245.012 307.464 245.077C307.069 245.141 306.729 245.279 306.444 245.489C306.159 245.695 305.949 245.95 305.814 246.254C305.683 246.553 305.646 246.88 305.704 247.235C305.76 247.582 305.896 247.875 306.111 248.114C306.325 248.349 306.6 248.517 306.935 248.618C307.27 248.715 307.641 248.73 308.047 248.664ZM307.157 243.194C307.5 243.139 307.793 243.019 308.038 242.836C308.282 242.653 308.46 242.426 308.571 242.154C308.682 241.883 308.712 241.585 308.659 241.262C308.607 240.944 308.486 240.677 308.296 240.463C308.105 240.244 307.867 240.089 307.582 239.996C307.296 239.899 306.978 239.879 306.627 239.936C306.28 239.993 305.985 240.112 305.741 240.295C305.496 240.474 305.317 240.698 305.205 240.965C305.097 241.229 305.068 241.519 305.12 241.838C305.173 242.161 305.295 242.434 305.487 242.656C305.678 242.879 305.919 243.038 306.209 243.134C306.498 243.23 306.815 243.25 307.157 243.194Z" fill="black"/>
<path d="M261.633 265.395C260.848 265.737 260.086 265.897 259.346 265.876C258.609 265.853 257.951 265.667 257.371 265.316C256.791 264.965 256.351 264.465 256.051 263.817L258.383 262.801C258.601 263.23 258.941 263.507 259.405 263.631C259.868 263.755 260.337 263.713 260.811 263.507C261.188 263.343 261.485 263.114 261.701 262.822C261.92 262.524 262.045 262.19 262.077 261.819C262.112 261.443 262.043 261.059 261.872 260.666C261.698 260.267 261.46 259.952 261.157 259.723C260.859 259.492 260.524 259.356 260.154 259.314C259.784 259.273 259.407 259.334 259.024 259.496C258.691 259.641 258.397 259.851 258.142 260.125C257.891 260.397 257.73 260.69 257.659 261.002L255.354 261.55L253.281 255.319L260.232 252.291L261.089 254.256L256.119 256.421L257.066 259.398L257.132 259.369C257.21 259 257.41 258.636 257.733 258.275C258.055 257.914 258.467 257.625 258.966 257.407C259.651 257.109 260.332 257.004 261.009 257.092C261.686 257.18 262.303 257.438 262.859 257.865C263.413 258.289 263.847 258.866 264.161 259.597C264.499 260.361 264.618 261.12 264.518 261.872C264.421 262.619 264.126 263.303 263.634 263.922C263.144 264.536 262.477 265.027 261.633 265.395ZM266.583 249.34C267.168 249.085 267.774 248.938 268.4 248.899C269.029 248.858 269.65 248.959 270.263 249.203C270.88 249.446 271.467 249.868 272.024 250.471C272.584 251.068 273.09 251.881 273.542 252.908C273.962 253.874 274.229 254.784 274.341 255.638C274.455 256.487 274.426 257.264 274.253 257.969C274.08 258.674 273.769 259.29 273.32 259.816C272.869 260.338 272.292 260.752 271.589 261.058C270.83 261.389 270.096 261.535 269.388 261.495C268.678 261.452 268.034 261.255 267.458 260.902C266.884 260.545 266.421 260.064 266.07 259.459L268.441 258.426C268.714 258.801 269.048 259.038 269.445 259.139C269.839 259.235 270.255 259.189 270.692 258.998C271.432 258.676 271.854 258.109 271.959 257.297C272.061 256.482 271.87 255.51 271.383 254.383L271.305 254.417C271.28 254.825 271.176 255.211 270.992 255.578C270.806 255.94 270.555 256.268 270.237 256.56C269.924 256.851 269.558 257.088 269.139 257.27C268.469 257.562 267.803 257.665 267.14 257.579C266.478 257.493 265.874 257.241 265.331 256.822C264.787 256.402 264.361 255.839 264.053 255.132C263.717 254.371 263.597 253.615 263.693 252.865C263.789 252.114 264.081 251.431 264.571 250.817C265.063 250.198 265.734 249.705 266.583 249.34ZM267.422 251.22C267.049 251.383 266.754 251.617 266.539 251.922C266.328 252.225 266.202 252.564 266.163 252.938C266.127 253.311 266.191 253.681 266.356 254.05C266.519 254.424 266.747 254.725 267.04 254.954C267.336 255.177 267.665 255.316 268.027 255.369C268.392 255.418 268.759 255.361 269.129 255.2C269.407 255.079 269.642 254.915 269.834 254.708C270.025 254.501 270.169 254.269 270.264 254.012C270.361 253.75 270.407 253.476 270.402 253.192C270.397 252.908 270.336 252.631 270.218 252.361C270.058 252.003 269.829 251.711 269.532 251.484C269.235 251.256 268.901 251.116 268.529 251.062C268.158 251.008 267.789 251.061 267.422 251.22Z" fill="black"/>
<path d="M233.855 282.148C233.268 282.399 232.661 282.547 232.033 282.592C231.409 282.634 230.788 282.533 230.17 282.287C229.552 282.041 228.961 281.615 228.398 281.011C227.839 280.404 227.333 279.581 226.88 278.541C226.468 277.584 226.205 276.683 226.092 275.838C225.982 274.988 226.014 274.212 226.189 273.511C226.367 272.808 226.679 272.196 227.126 271.675C227.572 271.151 228.146 270.736 228.85 270.429C229.608 270.099 230.343 269.955 231.053 269.998C231.762 270.037 232.401 270.232 232.972 270.582C233.547 270.931 234.007 271.402 234.354 271.995L231.983 273.028C231.718 272.672 231.388 272.446 230.994 272.349C230.599 272.252 230.184 272.299 229.747 272.489C229.006 272.812 228.584 273.379 228.48 274.191C228.379 275.001 228.566 275.961 229.041 277.071L229.118 277.037C229.142 276.626 229.246 276.239 229.432 275.877C229.62 275.509 229.871 275.181 230.186 274.894C230.504 274.602 230.87 274.365 231.285 274.185C231.958 273.891 232.627 273.789 233.292 273.878C233.954 273.964 234.557 274.217 235.101 274.636C235.645 275.055 236.072 275.62 236.381 276.331C236.717 277.101 236.835 277.864 236.738 278.62C236.643 279.375 236.35 280.062 235.858 280.681C235.368 281.295 234.7 281.784 233.855 282.148ZM233.021 280.265C233.392 280.104 233.684 279.871 233.899 279.566C234.114 279.261 234.239 278.92 234.273 278.544C234.308 278.168 234.243 277.791 234.078 277.413C233.914 277.036 233.683 276.733 233.386 276.506C233.092 276.277 232.762 276.137 232.396 276.085C232.03 276.033 231.662 276.088 231.292 276.249C231.014 276.37 230.78 276.534 230.588 276.741C230.4 276.946 230.257 277.18 230.16 277.442C230.067 277.703 230.023 277.977 230.03 278.265C230.035 278.549 230.097 278.828 230.216 279.102C230.376 279.469 230.605 279.768 230.904 279.998C231.206 280.228 231.541 280.37 231.909 280.426C232.28 280.48 232.651 280.426 233.021 280.265ZM244.313 277.705C243.356 278.118 242.432 278.241 241.54 278.074C240.652 277.906 239.83 277.46 239.075 276.737C238.323 276.012 237.678 275.026 237.14 273.781C236.6 272.541 236.323 271.404 236.309 270.371C236.298 269.336 236.536 268.442 237.023 267.688C237.511 266.929 238.231 266.343 239.183 265.928C240.134 265.514 241.052 265.387 241.937 265.548C242.825 265.707 243.645 266.143 244.396 266.855C245.145 267.564 245.787 268.539 246.324 269.781C246.867 271.028 247.147 272.175 247.162 273.221C247.181 274.265 246.949 275.17 246.468 275.934C245.986 276.699 245.268 277.289 244.313 277.705ZM243.444 275.712C244.096 275.428 244.473 274.874 244.576 274.05C244.68 273.225 244.444 272.158 243.87 270.85C243.494 269.987 243.092 269.308 242.665 268.811C242.241 268.313 241.805 267.99 241.357 267.842C240.913 267.692 240.474 267.711 240.041 267.9C239.394 268.182 239.016 268.731 238.91 269.548C238.803 270.366 239.03 271.421 239.589 272.714C239.969 273.588 240.374 274.279 240.803 274.788C241.233 275.292 241.673 275.62 242.123 275.772C242.571 275.921 243.011 275.901 243.444 275.712Z" fill="black"/>
<path d="M191.284 251.764C190.797 252.176 190.26 252.495 189.672 252.722C189.088 252.945 188.464 253.03 187.801 252.976C187.138 252.922 186.449 252.688 185.734 252.274C185.022 251.858 184.297 251.219 183.559 250.357C182.884 249.563 182.37 248.779 182.015 248.004C181.66 247.223 181.463 246.472 181.425 245.75C181.389 245.026 181.509 244.349 181.784 243.721C182.057 243.089 182.484 242.524 183.067 242.025C183.696 241.486 184.356 241.134 185.047 240.967C185.736 240.797 186.405 240.796 187.054 240.964C187.705 241.129 188.284 241.444 188.789 241.91L186.824 243.592C186.466 243.329 186.085 243.21 185.679 243.233C185.274 243.255 184.89 243.422 184.528 243.732C183.915 244.257 183.677 244.923 183.815 245.73C183.956 246.534 184.416 247.397 185.194 248.319L185.259 248.264C185.161 247.864 185.148 247.464 185.219 247.063C185.291 246.656 185.435 246.269 185.653 245.902C185.87 245.53 186.151 245.196 186.495 244.902C187.053 244.424 187.663 244.131 188.324 244.022C188.983 243.91 189.634 243.975 190.276 244.216C190.919 244.458 191.493 244.873 191.997 245.462C192.543 246.1 192.88 246.795 193.008 247.547C193.138 248.296 193.059 249.038 192.77 249.775C192.482 250.505 191.986 251.169 191.284 251.764ZM189.936 250.208C190.243 249.945 190.454 249.637 190.571 249.282C190.687 248.927 190.706 248.565 190.629 248.195C190.552 247.826 190.379 247.484 190.112 247.172C189.844 246.859 189.534 246.637 189.184 246.507C188.836 246.374 188.48 246.336 188.114 246.394C187.749 246.451 187.413 246.611 187.106 246.874C186.876 247.071 186.7 247.296 186.577 247.55C186.457 247.802 186.39 248.067 186.374 248.346C186.361 248.623 186.4 248.898 186.49 249.172C186.578 249.442 186.719 249.69 186.913 249.917C187.173 250.221 187.48 250.44 187.833 250.573C188.19 250.704 188.552 250.742 188.92 250.687C189.291 250.63 189.629 250.47 189.936 250.208ZM194.55 245.875L193.207 244.306L191.836 234.741L193.189 233.583L195.048 235.755L194.247 236.44L195.127 242.488L195.19 242.561L200.78 237.776L202.147 239.373L194.55 245.875ZM200.491 243.66L198.664 241.525L198.106 240.799L192.462 234.206L194.33 232.607L202.396 242.029L200.491 243.66Z" fill="black"/>
<path d="M161.624 277.098C161.136 277.51 160.599 277.829 160.011 278.056C159.427 278.279 158.803 278.364 158.14 278.31C157.477 278.256 156.788 278.022 156.073 277.608C155.361 277.192 154.636 276.553 153.898 275.691C153.224 274.897 152.709 274.113 152.354 273.338C151.999 272.557 151.802 271.806 151.764 271.084C151.728 270.36 151.848 269.683 152.123 269.055C152.396 268.423 152.823 267.858 153.406 267.359C154.035 266.82 154.695 266.468 155.387 266.301C156.076 266.131 156.744 266.13 157.393 266.298C158.044 266.463 158.623 266.778 159.128 267.244L157.163 268.926C156.806 268.663 156.424 268.544 156.018 268.567C155.613 268.589 155.229 268.756 154.867 269.066C154.254 269.591 154.016 270.257 154.154 271.064C154.295 271.868 154.755 272.731 155.534 273.653L155.598 273.598C155.5 273.198 155.487 272.798 155.558 272.397C155.63 271.99 155.774 271.603 155.992 271.236C156.21 270.864 156.49 270.53 156.834 270.236C157.392 269.758 158.002 269.465 158.663 269.356C159.322 269.244 159.973 269.309 160.615 269.55C161.258 269.792 161.832 270.207 162.336 270.796C162.882 271.434 163.219 272.129 163.347 272.881C163.478 273.63 163.398 274.372 163.109 275.109C162.821 275.839 162.325 276.503 161.624 277.098ZM160.275 275.542C160.582 275.279 160.793 274.971 160.91 274.616C161.026 274.261 161.046 273.899 160.968 273.529C160.891 273.16 160.718 272.818 160.451 272.506C160.183 272.193 159.874 271.971 159.523 271.841C159.175 271.708 158.819 271.67 158.453 271.728C158.088 271.785 157.752 271.945 157.445 272.208C157.215 272.405 157.039 272.63 156.916 272.884C156.796 273.136 156.729 273.401 156.713 273.68C156.7 273.957 156.739 274.232 156.829 274.505C156.917 274.776 157.058 275.024 157.252 275.251C157.512 275.555 157.819 275.774 158.172 275.907C158.529 276.038 158.891 276.076 159.259 276.021C159.63 275.964 159.969 275.804 160.275 275.542ZM170.002 269.926C169.352 270.483 168.669 270.859 167.955 271.056C167.245 271.25 166.56 271.264 165.903 271.099C165.246 270.933 164.679 270.584 164.202 270.052L166.134 268.398C166.468 268.744 166.875 268.909 167.354 268.892C167.834 268.875 168.27 268.698 168.663 268.362C168.976 268.094 169.193 267.789 169.314 267.446C169.435 267.097 169.457 266.741 169.379 266.377C169.302 266.007 169.124 265.66 168.846 265.335C168.562 265.004 168.242 264.773 167.886 264.642C167.533 264.509 167.173 264.476 166.807 264.545C166.441 264.614 166.098 264.782 165.78 265.05C165.504 265.286 165.284 265.573 165.12 265.909C164.96 266.243 164.891 266.57 164.915 266.89L162.872 268.089L159.065 262.738L164.825 257.807L166.22 259.436L162.102 262.96L163.878 265.529L163.933 265.482C163.9 265.107 163.984 264.7 164.187 264.261C164.39 263.821 164.699 263.424 165.113 263.069C165.68 262.584 166.301 262.284 166.974 262.17C167.647 262.056 168.312 262.122 168.969 262.368C169.623 262.61 170.207 263.035 170.721 263.642C171.268 264.274 171.604 264.965 171.729 265.713C171.855 266.456 171.773 267.196 171.484 267.932C171.195 268.663 170.701 269.328 170.002 269.926Z" fill="black"/>
<path d="M133.446 303.051C132.959 303.463 132.421 303.782 131.834 304.009C131.25 304.232 130.626 304.317 129.963 304.263C129.3 304.209 128.611 303.975 127.895 303.561C127.183 303.145 126.458 302.506 125.72 301.644C125.046 300.85 124.531 300.066 124.176 299.291C123.822 298.51 123.625 297.759 123.586 297.037C123.551 296.313 123.671 295.637 123.946 295.008C124.218 294.376 124.646 293.811 125.228 293.312C125.857 292.774 126.517 292.421 127.209 292.254C127.898 292.084 128.567 292.083 129.215 292.251C129.867 292.416 130.445 292.731 130.95 293.197L128.986 294.879C128.628 294.616 128.246 294.497 127.841 294.52C127.435 294.543 127.052 294.709 126.69 295.019C126.076 295.544 125.838 296.21 125.976 297.017C126.117 297.821 126.577 298.684 127.356 299.606L127.42 299.551C127.323 299.151 127.309 298.751 127.381 298.35C127.452 297.943 127.597 297.556 127.814 297.189C128.032 296.817 128.313 296.483 128.656 296.189C129.215 295.712 129.824 295.418 130.486 295.309C131.144 295.197 131.795 295.262 132.438 295.503C133.081 295.745 133.654 296.16 134.158 296.749C134.704 297.387 135.041 298.082 135.169 298.834C135.3 299.583 135.221 300.325 134.932 301.062C134.643 301.793 134.148 302.456 133.446 303.051ZM132.098 301.495C132.404 301.232 132.616 300.924 132.732 300.569C132.849 300.214 132.868 299.852 132.791 299.483C132.713 299.113 132.541 298.772 132.273 298.459C132.005 298.146 131.696 297.924 131.345 297.794C130.998 297.661 130.641 297.623 130.276 297.681C129.911 297.739 129.575 297.899 129.268 298.161C129.038 298.358 128.861 298.583 128.739 298.837C128.619 299.089 128.551 299.354 128.535 299.633C128.522 299.91 128.561 300.185 128.652 300.459C128.739 300.729 128.881 300.978 129.075 301.204C129.335 301.508 129.641 301.727 129.995 301.86C130.351 301.991 130.713 302.029 131.081 301.974C131.452 301.917 131.791 301.757 132.098 301.495ZM141.999 295.73C141.512 296.141 140.975 296.461 140.387 296.687C139.803 296.911 139.179 296.996 138.516 296.941C137.853 296.887 137.164 296.653 136.449 296.24C135.736 295.824 135.011 295.185 134.273 294.323C133.599 293.529 133.084 292.744 132.729 291.969C132.375 291.189 132.178 290.438 132.14 289.716C132.104 288.991 132.224 288.315 132.499 287.686C132.771 287.054 133.199 286.489 133.782 285.99C134.41 285.452 135.071 285.099 135.762 284.933C136.451 284.763 137.12 284.762 137.768 284.929C138.42 285.094 138.998 285.41 139.503 285.876L137.539 287.557C137.181 287.295 136.8 287.175 136.394 287.198C135.988 287.221 135.605 287.387 135.243 287.697C134.629 288.222 134.391 288.888 134.529 289.695C134.67 290.499 135.13 291.362 135.909 292.285L135.974 292.23C135.876 291.83 135.862 291.429 135.934 291.028C136.005 290.621 136.15 290.235 136.367 289.868C136.585 289.495 136.866 289.162 137.209 288.868C137.768 288.39 138.377 288.096 139.039 287.987C139.698 287.875 140.348 287.94 140.991 288.182C141.634 288.423 142.207 288.839 142.711 289.428C143.257 290.066 143.594 290.761 143.722 291.512C143.853 292.261 143.774 293.004 143.485 293.74C143.196 294.471 142.701 295.134 141.999 295.73ZM140.651 294.173C140.958 293.911 141.169 293.602 141.285 293.247C141.402 292.893 141.421 292.531 141.344 292.161C141.267 291.791 141.094 291.45 140.826 291.137C140.558 290.824 140.249 290.603 139.898 290.472C139.551 290.339 139.194 290.302 138.829 290.359C138.464 290.417 138.128 290.577 137.821 290.84C137.591 291.036 137.415 291.262 137.292 291.516C137.172 291.767 137.104 292.032 137.088 292.312C137.075 292.589 137.114 292.864 137.205 293.137C137.293 293.407 137.434 293.656 137.628 293.883C137.888 294.187 138.194 294.405 138.548 294.538C138.904 294.669 139.266 294.707 139.634 294.653C140.005 294.596 140.344 294.436 140.651 294.173Z" fill="black"/>
<path d="M101.154 328.782C100.585 329.129 99.9799 329.372 99.3379 329.511C98.6995 329.648 98.0428 329.635 97.3679 329.473C96.693 329.311 96.0199 328.959 95.3487 328.418C94.681 327.875 94.036 327.1 93.4135 326.093C92.8455 325.166 92.4406 324.274 92.1988 323.418C91.9583 322.557 91.8761 321.751 91.9521 321C92.0318 320.248 92.2638 319.569 92.6482 318.965C93.0303 318.357 93.5619 317.843 94.2428 317.422C94.9774 316.968 95.7147 316.711 96.4546 316.649C97.1922 316.585 97.8819 316.691 98.5236 316.968C99.169 317.243 99.7146 317.661 100.161 318.222L97.8653 319.641C97.5387 319.313 97.1645 319.128 96.7426 319.087C96.3208 319.045 95.8985 319.155 95.4756 319.417C94.7588 319.86 94.4068 320.508 94.4196 321.362C94.4359 322.214 94.7717 323.178 95.4269 324.254L95.5022 324.207C95.4654 323.779 95.5159 323.364 95.6537 322.962C95.7928 322.554 96.0039 322.178 96.2869 321.835C96.5714 321.486 96.9143 321.187 97.3156 320.939C97.9679 320.536 98.6437 320.331 99.3431 320.325C100.04 320.315 100.701 320.486 101.325 320.838C101.949 321.191 102.473 321.711 102.899 322.399C103.359 323.144 103.595 323.915 103.607 324.71C103.622 325.503 103.421 326.256 103.005 326.969C102.59 327.677 101.973 328.281 101.154 328.782ZM100.013 326.961C100.371 326.74 100.639 326.456 100.816 326.108C100.993 325.761 101.071 325.391 101.05 324.998C101.03 324.604 100.907 324.225 100.681 323.859C100.455 323.493 100.172 323.215 99.8308 323.025C99.4937 322.832 99.1322 322.736 98.7464 322.737C98.3605 322.737 97.9884 322.849 97.63 323.07C97.3612 323.236 97.1432 323.44 96.9758 323.683C96.8121 323.922 96.6996 324.185 96.6383 324.471C96.5807 324.754 96.5765 325.044 96.626 325.34C96.6732 325.633 96.7788 325.912 96.9427 326.177C97.1621 326.532 97.4432 326.806 97.7861 327.001C98.1326 327.193 98.4999 327.29 98.888 327.293C99.2796 327.293 99.6547 327.183 100.013 326.961ZM107.264 324.797L106.245 312.945L106.199 312.87L100.882 316.156L99.706 314.253L107.431 309.478L108.624 311.408L109.667 323.312L107.264 324.797Z" fill="black"/>
<path d="M67.2638 348.062C66.6578 348.338 66.0278 348.506 65.3737 348.567C64.7234 348.626 64.073 348.535 63.4226 348.292C62.7721 348.05 62.1462 347.62 61.5449 347.002C60.9475 346.383 60.4004 345.535 59.9036 344.461C59.4512 343.472 59.1565 342.539 59.0194 341.66C58.8844 340.775 58.8997 339.965 59.0655 339.23C59.2351 338.492 59.5471 337.847 60.0013 337.293C60.4538 336.736 61.0434 336.289 61.77 335.953C62.554 335.591 63.3169 335.424 64.0587 335.452C64.7988 335.477 65.4707 335.665 66.0745 336.017C66.682 336.367 67.1735 336.848 67.5487 337.459L65.0993 338.591C64.8145 338.226 64.4653 337.998 64.0515 337.906C63.6377 337.814 63.2052 337.873 62.7539 338.081C61.9891 338.435 61.5616 339.036 61.4715 339.886C61.3852 340.733 61.6026 341.73 62.1236 342.877L62.2039 342.84C62.2189 342.411 62.319 342.005 62.5042 341.622C62.6913 341.234 62.9461 340.887 63.2684 340.58C63.5928 340.267 63.9691 340.012 64.3974 339.814C65.0934 339.492 65.789 339.37 66.4841 339.448C67.1774 339.522 67.8126 339.772 68.3896 340.196C68.9666 340.621 69.4248 341.201 69.7643 341.935C70.132 342.73 70.2737 343.524 70.1891 344.315C70.1084 345.104 69.8186 345.827 69.3197 346.485C68.8228 347.137 68.1375 347.663 67.2638 348.062ZM66.3507 346.117C66.7331 345.94 67.0329 345.69 67.2502 345.367C67.4674 345.044 67.5896 344.686 67.6167 344.293C67.6438 343.899 67.5672 343.508 67.3869 343.118C67.2065 342.728 66.9587 342.418 66.6434 342.187C66.3319 341.955 65.9846 341.817 65.6015 341.771C65.2183 341.725 64.8355 341.791 64.4531 341.968C64.1663 342.1 63.9253 342.277 63.73 342.497C63.5386 342.715 63.3953 342.963 63.3001 343.239C63.2088 343.513 63.1698 343.8 63.1833 344.1C63.1949 344.397 63.2662 344.686 63.397 344.969C63.5721 345.348 63.8181 345.654 64.1352 345.888C64.4561 346.12 64.809 346.261 65.1939 346.311C65.5826 346.359 65.9682 346.294 66.3507 346.117ZM77.8015 343.19C76.9181 343.599 76.0659 343.819 75.2449 343.85C74.426 343.876 73.7057 343.729 73.084 343.408C72.4624 343.087 72.0048 342.61 71.7113 341.975C71.485 341.485 71.3881 340.985 71.4208 340.473C71.4555 339.956 71.6032 339.472 71.8639 339.022C72.1228 338.568 72.4736 338.192 72.9163 337.895L72.8792 337.814C72.1937 337.978 71.5445 337.909 70.9316 337.608C70.317 337.302 69.8612 336.829 69.5642 336.186C69.2831 335.578 69.2107 334.955 69.3471 334.316C69.4818 333.674 69.7961 333.073 70.2901 332.515C70.7862 331.952 71.43 331.487 72.2216 331.121C73.0132 330.755 73.7824 330.567 74.5293 330.556C75.2799 330.543 75.9436 330.693 76.5202 331.007C77.0951 331.317 77.5241 331.773 77.8073 332.375C78.1023 333.023 78.1642 333.679 77.9931 334.343C77.8219 335.007 77.4577 335.545 76.9003 335.955L76.9375 336.036C77.4432 335.895 77.9509 335.873 78.4607 335.972C78.9724 336.065 79.4366 336.266 79.8532 336.574C80.2718 336.878 80.5962 337.273 80.8263 337.761C81.116 338.397 81.1816 339.056 81.0231 339.738C80.8647 340.419 80.5085 341.064 79.9545 341.673C79.4025 342.276 78.6849 342.782 77.8015 343.19ZM76.9581 341.366C77.352 341.184 77.6635 340.954 77.8925 340.677C78.1198 340.395 78.2573 340.09 78.3051 339.762C78.3549 339.428 78.3029 339.094 78.1491 338.762C77.9917 338.421 77.7669 338.161 77.4746 337.981C77.1805 337.796 76.8517 337.698 76.4883 337.685C76.1231 337.668 75.7493 337.748 75.3669 337.924C74.9883 338.1 74.6852 338.332 74.4577 338.623C74.2283 338.91 74.0886 339.226 74.0385 339.569C73.9905 339.907 74.0451 340.246 74.2025 340.586C74.3563 340.919 74.5746 341.176 74.8575 341.356C75.1387 341.532 75.462 341.624 75.8275 341.631C76.1912 341.635 76.568 341.547 76.9581 341.366ZM74.5315 336.118C74.8604 335.965 75.122 335.763 75.3164 335.511C75.5107 335.259 75.6257 334.98 75.6614 334.676C75.6971 334.372 75.6434 334.065 75.5002 333.755C75.3587 333.449 75.1623 333.215 74.9109 333.053C74.6577 332.887 74.3749 332.797 74.0624 332.784C73.7481 332.766 73.4227 332.836 73.0862 332.991C72.7535 333.145 72.4899 333.348 72.2956 333.6C72.0995 333.849 71.9827 334.123 71.9452 334.424C71.9098 334.719 71.9628 335.019 72.1043 335.325C72.2475 335.635 72.4465 335.875 72.7015 336.045C72.9564 336.214 73.2429 336.307 73.561 336.323C73.8791 336.338 74.2026 336.27 74.5315 336.118Z" fill="black"/>
<path d="M33.4315 367.828C32.8255 368.103 32.1955 368.272 31.5414 368.333C30.8911 368.392 30.2408 368.3 29.5903 368.058C28.9398 367.816 28.3139 367.386 27.7127 366.768C27.1152 366.148 26.5681 365.301 26.0713 364.226C25.619 363.238 25.3242 362.304 25.1871 361.426C25.0521 360.541 25.0675 359.731 25.2332 358.995C25.4029 358.258 25.7148 357.612 26.1691 357.059C26.6216 356.501 27.2111 356.055 27.9377 355.719C28.7217 355.356 29.4846 355.189 30.2264 355.218C30.9665 355.242 31.6384 355.431 32.2422 355.783C32.8498 356.133 33.3412 356.614 33.7165 357.225L31.2671 358.357C30.9823 357.992 30.633 357.764 30.2192 357.672C29.8054 357.58 29.3729 357.638 28.9216 357.847C28.1568 358.201 27.7293 358.802 27.6392 359.651C27.553 360.499 27.7703 361.496 28.2913 362.643L28.3716 362.606C28.3867 362.177 28.4867 361.771 28.6719 361.388C28.8591 361 29.1138 360.652 29.4361 360.345C29.7605 360.033 30.1368 359.778 30.5651 359.58C31.2612 359.258 31.9567 359.136 32.6518 359.214C33.3451 359.288 33.9803 359.537 34.5573 359.962C35.1343 360.387 35.5926 360.966 35.932 361.701C36.2998 362.496 36.4414 363.289 36.3569 364.08C36.2761 364.87 35.9863 365.593 35.4874 366.251C34.9905 366.903 34.3052 367.429 33.4315 367.828ZM32.5184 365.883C32.9008 365.706 33.2006 365.456 33.4179 365.133C33.6351 364.809 33.7573 364.451 33.7844 364.058C33.8115 363.665 33.7349 363.273 33.5546 362.883C33.3743 362.493 33.1264 362.183 32.8111 361.953C32.4997 361.721 32.1523 361.582 31.7692 361.536C31.386 361.491 31.0032 361.556 30.6208 361.733C30.334 361.866 30.093 362.042 29.8977 362.262C29.7063 362.481 29.563 362.728 29.4679 363.004C29.3765 363.279 29.3376 363.566 29.351 363.866C29.3627 364.162 29.4339 364.452 29.5648 364.735C29.7398 365.113 29.9858 365.42 30.3029 365.654C30.6238 365.886 30.9767 366.027 31.3616 366.076C31.7504 366.124 32.136 366.06 32.5184 365.883ZM38.2574 350.948C38.8616 350.668 39.4898 350.501 40.1418 350.446C40.7977 350.388 41.448 350.48 42.0929 350.72C42.7416 350.959 43.3638 351.386 43.9595 352.002C44.5572 352.612 45.1038 353.448 45.5991 354.509C46.0605 355.507 46.3597 356.45 46.4965 357.339C46.6354 358.221 46.6228 359.032 46.4588 359.772C46.2948 360.512 45.9846 361.161 45.5283 361.72C45.0702 362.275 44.4778 362.721 43.7512 363.057C42.9672 363.419 42.2052 363.588 41.4651 363.564C40.7233 363.535 40.0477 363.344 39.4384 362.99C38.8311 362.63 38.3371 362.139 37.9566 361.517L40.406 360.384C40.6996 360.768 41.0542 361.008 41.4697 361.104C41.8835 361.196 42.316 361.137 42.7673 360.929C43.5322 360.575 43.9596 359.974 44.0497 359.124C44.138 358.271 43.9154 357.262 43.3817 356.098L43.3014 356.135C43.2846 356.561 43.1845 356.967 43.0011 357.353C42.816 357.736 42.5613 358.083 42.2369 358.396C41.9164 358.707 41.54 358.962 41.1079 359.162C40.4157 359.482 39.7229 359.605 39.0296 359.531C38.3363 359.457 37.7011 359.207 37.1241 358.782C36.5471 358.357 36.0897 357.78 35.752 357.049C35.384 356.263 35.2412 355.478 35.3237 354.692C35.4062 353.907 35.6958 353.188 36.1927 352.536C36.6917 351.878 37.3799 351.349 38.2574 350.948ZM39.1763 352.89C38.79 353.069 38.4883 353.32 38.2711 353.643C38.0576 353.964 37.9346 354.321 37.9019 354.712C37.873 355.101 37.9488 355.486 38.1295 355.867C38.308 356.253 38.5531 356.562 38.8645 356.794C39.1781 357.02 39.5245 357.157 39.9038 357.205C40.2852 357.247 40.6671 357.179 41.0495 357.002C41.3364 356.87 41.5774 356.693 41.7726 356.473C41.9679 356.253 42.1121 356.007 42.2052 355.737C42.3003 355.461 42.3421 355.175 42.3304 354.878C42.3187 354.582 42.2484 354.294 42.1193 354.015C41.944 353.646 41.6987 353.346 41.3834 353.116C41.0681 352.886 40.7161 352.747 40.3273 352.699C39.9386 352.652 39.5549 352.715 39.1763 352.89Z" fill="black"/>
<path d="M83.1132 234.584C83.7234 234.584 84.3104 234.686 84.8743 234.891C85.442 235.096 85.9479 235.422 86.3921 235.87C86.8401 236.318 87.1934 236.913 87.4522 237.654C87.7148 238.392 87.8481 239.298 87.8519 240.371C87.8519 241.379 87.738 242.279 87.5101 243.071C87.2861 243.859 86.9636 244.529 86.5427 245.081C86.1217 245.633 85.6139 246.054 85.0191 246.344C84.4244 246.63 83.7601 246.773 83.0263 246.773C82.2346 246.773 81.5355 246.62 80.9292 246.315C80.3229 246.006 79.8343 245.587 79.4636 245.058C79.0967 244.525 78.8746 243.926 78.7973 243.262H81.271C81.3675 243.695 81.5703 244.031 81.8793 244.27C82.1882 244.506 82.5706 244.623 83.0263 244.623C83.7987 244.623 84.3857 244.287 84.7874 243.615C85.189 242.939 85.3918 242.015 85.3957 240.84H85.3146C85.1369 241.188 84.8975 241.487 84.5962 241.738C84.295 241.986 83.9493 242.177 83.5593 242.312C83.173 242.447 82.7617 242.515 82.3253 242.515C81.6263 242.515 81.0026 242.351 80.4542 242.022C79.9058 241.694 79.4732 241.242 79.1565 240.667C78.8398 240.091 78.6815 239.435 78.6815 238.697C78.6776 237.901 78.8611 237.193 79.2318 236.571C79.6026 235.949 80.1201 235.463 80.7844 235.111C81.4525 234.756 82.2288 234.58 83.1132 234.584ZM83.1306 236.554C82.7405 236.554 82.3929 236.646 82.0878 236.832C81.7866 237.017 81.5471 237.266 81.3695 237.579C81.1957 237.892 81.1107 238.241 81.1146 238.627C81.1146 239.018 81.1995 239.369 81.3695 239.682C81.5433 239.991 81.7788 240.238 82.0762 240.423C82.3775 240.605 82.7212 240.696 83.1074 240.696C83.397 240.696 83.6655 240.642 83.9126 240.533C84.1598 240.425 84.3741 240.277 84.5557 240.087C84.741 239.894 84.8859 239.672 84.9901 239.421C85.0944 239.17 85.1466 238.904 85.1466 238.622C85.1427 238.247 85.0539 237.903 84.8801 237.591C84.7063 237.278 84.4668 237.027 84.1617 236.837C83.8566 236.648 83.5129 236.554 83.1306 236.554Z" fill="black"/>
<path d="M117.356 246.773C116.464 246.773 115.67 246.628 114.975 246.338C114.284 246.045 113.741 245.645 113.347 245.139C112.953 244.633 112.756 244.059 112.756 243.418C112.756 242.924 112.868 242.47 113.092 242.057C113.32 241.64 113.629 241.294 114.019 241.02C114.409 240.742 114.846 240.564 115.328 240.487V240.406C114.695 240.279 114.181 239.971 113.787 239.485C113.394 238.994 113.197 238.425 113.197 237.776C113.197 237.162 113.376 236.615 113.735 236.136C114.095 235.654 114.587 235.275 115.213 235.001C115.842 234.723 116.557 234.584 117.356 234.584C118.155 234.584 118.868 234.723 119.494 235.001C120.123 235.279 120.618 235.66 120.977 236.142C121.336 236.621 121.517 237.166 121.521 237.776C121.517 238.429 121.317 238.998 120.919 239.485C120.521 239.971 120.011 240.279 119.389 240.406V240.487C119.864 240.564 120.295 240.742 120.681 241.02C121.071 241.294 121.38 241.64 121.608 242.057C121.84 242.47 121.958 242.924 121.962 243.418C121.958 244.059 121.759 244.633 121.365 245.139C120.971 245.645 120.426 246.045 119.731 246.338C119.04 246.628 118.248 246.773 117.356 246.773ZM117.356 244.93C117.754 244.93 118.101 244.859 118.399 244.716C118.696 244.569 118.928 244.368 119.094 244.114C119.264 243.855 119.349 243.557 119.349 243.221C119.349 242.878 119.262 242.575 119.088 242.312C118.914 242.045 118.679 241.837 118.381 241.686C118.084 241.532 117.742 241.455 117.356 241.455C116.974 241.455 116.632 241.532 116.331 241.686C116.029 241.837 115.792 242.045 115.618 242.312C115.448 242.575 115.363 242.878 115.363 243.221C115.363 243.557 115.446 243.855 115.612 244.114C115.778 244.368 116.012 244.569 116.313 244.716C116.615 244.859 116.962 244.93 117.356 244.93ZM117.356 239.63C117.688 239.63 117.984 239.562 118.242 239.427C118.501 239.292 118.704 239.104 118.851 238.865C118.997 238.626 119.071 238.349 119.071 238.037C119.071 237.728 118.997 237.457 118.851 237.226C118.704 236.99 118.503 236.807 118.248 236.675C117.993 236.54 117.696 236.472 117.356 236.472C117.02 236.472 116.723 236.54 116.464 236.675C116.205 236.807 116.002 236.99 115.856 237.226C115.713 237.457 115.641 237.728 115.641 238.037C115.641 238.349 115.715 238.626 115.861 238.865C116.008 239.104 116.211 239.292 116.47 239.427C116.728 239.562 117.024 239.63 117.356 239.63Z" fill="black"/>
<path d="M146.026 245.87L150.944 236.137V236.056H145.215V234.005H153.54V236.085L148.615 245.87H146.026Z" fill="black"/>
<path d="M2.00888 359.89C0.892484 356.863 2.40023 353.499 5.40267 352.317L22.6161 345.545L40.7832 392.26L25.5433 402.508C22.3535 404.653 17.9975 403.244 16.6675 399.638L2.00888 359.89Z" fill="#3B3B3B"/>
<ellipse cx="21.026" cy="372.24" rx="4.19498" ry="6.32775" transform="rotate(-21.1525 21.026 372.24)" fill="#F3D617"/>
<path d="M346.657 375.947L382.621 342.579L396.473 359.744C398.315 362.026 398.213 365.311 396.233 367.474L368.962 397.276C366.319 400.164 361.653 399.745 359.567 396.434L346.657 375.947Z" fill="#3B3B3B"/>
<ellipse cx="373.612" cy="369.885" rx="4.07832" ry="5.19059" transform="rotate(45.709 373.612 369.885)" fill="#F0BB1F"/>
<path d="M341.096 81.1957C341.096 126.039 305.905 162.391 262.496 162.391C219.086 162.391 183.895 126.039 183.895 81.1957C183.895 36.3525 219.086 0 262.496 0C305.905 0 341.096 36.3525 341.096 81.1957ZM195.664 81.1957C195.664 119.324 225.586 150.234 262.496 150.234C299.406 150.234 329.327 119.324 329.327 81.1957C329.327 43.067 299.406 12.1576 262.496 12.1576C225.586 12.1576 195.664 43.067 195.664 81.1957Z" fill="black"/>
<path d="M248.037 75.6342C262.522 61.587 272.114 55.5128 290.674 48.1982C285.74 71.7682 280.772 81.9631 267.687 96.3966C252.485 100.846 242.846 94.5428 248.037 75.6342Z" fill="#640B0B"/>
<path d="M230.981 30.773L238.396 43.3787M245.812 24.8409L248.036 32.6268M261.013 22.2456V35.9636M278.809 24.8409L275.101 32.6268M291.785 30.773L284.741 41.5249M303.65 41.5249L298.459 46.3448M313.289 54.1307L301.796 59.692M313.289 68.9609L319.221 67.4779M308.099 83.0497H321.446M312.177 96.3969L319.221 99.7337M301.054 105.666L313.289 113.822M298.83 120.125L304.391 126.057M284 122.721L291.785 135.326M274.36 133.843L277.697 141.629M261.383 129.023V143.483M247.665 133.843L245.441 141.629M239.138 122.721L230.981 135.326M223.937 120.125L219.488 125.687M221.712 106.037L209.848 113.452M202.804 98.6214L210.59 96.3969M200.95 83.4204H215.039M203.175 67.1071L210.59 70.0732M208.736 52.6476L221.712 60.4335M218.005 40.4127L224.678 45.974" stroke="black" stroke-width="2.22454" stroke-linecap="round"/>
<path d="M268.428 83.4202C268.428 87.7202 264.776 91.2061 260.271 91.2061C255.766 91.2061 252.114 87.7202 252.114 83.4202C252.114 79.1201 255.766 75.6343 260.271 75.6343C264.776 75.6343 268.428 79.1201 268.428 83.4202ZM256.672 83.4202C256.672 85.3177 258.283 86.8559 260.271 86.8559C262.259 86.8559 263.87 85.3177 263.87 83.4202C263.87 81.5226 262.259 79.9844 260.271 79.9844C258.283 79.9844 256.672 81.5226 256.672 83.4202Z" fill="#D9D9D9"/>
</svg>
